<?xml version="1.0" encoding="UTF-8"?>
<svg id="Layer_2" xmlns="http://www.w3.org/2000/svg" viewBox="0 0 79.21 65.72">
  <defs>
    <style>
      .cls-1 {
        fill: #fddb32;
      }

      .cls-2 {
        fill: #191e3b;
      }
    </style>
  </defs>
  <g id="Layer_1-2" data-name="Layer_1">
    <g id="svg3486">
      <g>
        <path class="cls-2" d="M76.74,20.12h-5.35c-1.82,0-3.32-1.5-3.32-3.32l-3.53-10.38c-1.5-3.64-4.82-6.1-8.67-6.42H23.12c-3.85.32-7.17,2.89-8.67,6.42l-3.53,10.38c0,1.82-1.5,3.32-3.32,3.32H2.25c-1.18,0-2.25.96-2.25,2.25v5.78c0,1.28,1.07,2.46,2.46,2.46h1.39v31.79c0,1.82,1.5,3.32,3.32,3.32h7.71c1.82,0,3.32-1.5,3.32-3.32v-6.85h42.81v6.85c0,1.82,1.5,3.32,3.32,3.32h7.71c1.82,0,3.32-1.5,3.32-3.32v-31.79h1.39c1.28,0,2.46-1.07,2.46-2.46v-5.78c0-1.18-.96-2.25-2.25-2.25h-.21ZM59.94,26.12H19.05c-1.5,0-2.46-1.39-2.03-2.78l4.5-14.34c.32-.86,1.07-1.5,2.03-1.5h32.11c.96,0,1.82.64,2.03,1.5l4.28,14.34c.43,1.39-.64,2.78-2.03,2.78Z"/>
        <path class="cls-1" d="M13.27,35.96v6.64c0,1.18.96,2.14,2.14,2.14h10.81c1.18,0,2.14-.96,2.14-2.14h0c0-4.92-5.99-8.78-10.92-8.78h-2.14c-1.18,0-2.14.96-2.14,2.14h.11Z"/>
        <path class="cls-1" d="M64.86,35.96v6.64c0,1.18-.96,2.14-2.14,2.14h-10.81c-1.18,0-2.14-.96-2.14-2.14h0c0-4.92,5.99-8.78,10.92-8.78h2.14c1.18,0,2.14.96,2.14,2.14h-.11Z"/>
      </g>
    </g>
  </g>
</svg>