<?xml version="1.0" encoding="UTF-8"?>
<svg id="Layer_2" xmlns="http://www.w3.org/2000/svg" viewBox="0 0 92.51 72.87">
  <defs>
    <style>
      .cls-1 {
        fill: #fddb32;
        stroke: #fddb32;
        stroke-miterlimit: 10;
        stroke-width: 2px;
      }

      .cls-2 {
        fill: #191e3b;
      }
    </style>
  </defs>
  <g id="Layer_1-2" data-name="Layer_1">
    <g id="svg3486">
      <g>
        <path class="cls-2" d="M73.76,28.83h-3.32l-.69-15.68c0-3.2-2.63-5.84-5.84-5.84h-8.81v-1.49c0-3.2-2.63-5.84-5.84-5.84h-5.95c-3.2,0-5.84,2.63-5.84,5.84v1.49h-8.7c-3.2,0-5.84,2.63-5.84,5.84v15.68h-3.66c-2.29,0-4,2.17-3.32,4.46l7.09,22.66h46.57l7.55-22.43c.8-2.17-.92-4.58-3.2-4.58l-.23-.11ZM48.47,21.05c-1.26-.46-2.63-.46-3.89,0l-15.79,6.06v-11.67c0-2.4,1.95-4.35,4.35-4.35h26.2c2.4,0,4.35,1.95,4.35,4.35l.57,11.67-15.79-6.06Z"/>
        <g id="bZMMAD">
          <g>
            <path class="cls-1" d="M58.24,71.82c-4.05,0-7.99-.98-11.49-3.06-.22-.11-.66-.11-.98,0-7.66,4.16-15.32,4.16-22.87,0-.44-.22-.77,0-1.09,0-6.24,3.5-12.8,3.94-19.48,1.42-1.09-.44-1.53-1.2-1.09-2.08.33-.88,1.09-1.09,2.19-.77,6.35,2.19,12.37,1.75,18.06-2.08.66-.44,1.31-.44,1.97,0,7.33,4.6,14.55,4.6,21.89,0,.77-.44,1.42-.33,2.08.11,6.24,4.05,12.8,4.27,19.48,1.31.77-.33,1.53-.88,2.3-1.42.66-.44,1.31-.44,1.97,0,5.69,3.83,11.82,4.27,18.17,2.08.98-.33,1.75,0,2.08.77.33.88,0,1.64-1.09,1.97-6.68,2.52-13.24,2.08-19.48-1.42-.55-.33-.88-.33-1.42,0-3.39,2.08-7.22,2.95-11.16,2.95v.22Z"/>
            <path class="cls-1" d="M82.53,58.47c-4.6,0-8.43-.98-11.82-3.06-.44-.22-.66-.22-1.09,0-7.55,4.16-15.1,4.16-22.76,0-.44-.22-.66-.22-1.09,0-7.55,4.16-15.1,4.16-22.76,0-.55-.33-.88-.11-1.31,0-6.35,3.5-12.8,3.94-19.48,1.42-1.2-.44-1.53-1.53-.88-2.41.55-.66,1.31-.66,2.08-.33,4.27,1.64,8.64,1.75,13.02.33,1.64-.55,3.17-1.42,4.71-2.3.88-.44,1.53-.55,2.3,0,6.46,4.38,15.1,4.38,21.56,0,.77-.55,1.42-.55,2.3,0,6.46,4.38,15.1,4.38,21.56,0,.77-.55,1.42-.55,2.3,0,5.58,3.72,11.49,4.16,17.73,2.08.22,0,.44-.22.66-.22.88-.22,1.53.22,1.86.98.22.77,0,1.53-.88,1.86-1.75.55-3.5,1.09-5.36,1.42-1.09.22-2.19.22-2.74.22h.11Z"/>
          </g>
        </g>
      </g>
    </g>
  </g>
</svg>