<?xml version="1.0" encoding="UTF-8"?>
<svg id="Layer_2" xmlns="http://www.w3.org/2000/svg" viewBox="0 0 88.58 69.81">
  <defs>
    <style>
      .cls-1 {
        fill: #fddb32;
      }

      .cls-2 {
        fill: #191e3b;
      }
    </style>
  </defs>
  <g id="Layer_1-2" data-name="Layer_1">
    <g id="svg3486">
      <g>
        <path class="cls-2" d="M80.58,5.4c-.5,0-1.1.2-1.4.6l-15.5,15c-.5.5-1.3.7-1.9.5l-7.3-1.9c-1.3-.3-1.9-1.8-1.3-2.9l1.3-2.3c.4-.8.3-1.8-.3-2.4l-1.4-1.4c-.7-.7-1.9-.8-2.7-.1l-4.6,3.7c-.6.5-1.5.6-2.3.2l-7.3-4c-1.2-.6-2.6-.5-3.7.2l-3.2,2.3c-1.2.9-1.1,2.6.1,3.4l22.5,13.6c1.1.7,1.3,2.1.5,3.1l-12,13.7c-.5.6-1.3.8-2,.6l-8.4-2c-.6-.2-1.3,0-1.8.5l-1.9,1.7c-1,.9-.9,2.6.4,3.3l11,6,5.8,10.5c.7,1.2,2.4,1.4,3.3.4l1.7-1.9c.4-.5.6-1.2.5-1.8l-2-8.4c-.2-.7,0-1.5.6-2l13.7-12c1-.8,2.4-.6,3.1.5l13.6,22.5c.8,1.2,2.5,1.3,3.4.1l2.3-3.2c.8-1.1.9-2.5.2-3.7l-4-7.3c-.4-.7-.3-1.6.2-2.3l3.7-4.6c.7-.8.6-2-.1-2.7l-1.4-1.4c-.6-.6-1.6-.8-2.4-.3l-2.3,1.3c-1.2.6-2.6,0-2.9-1.3l-1.9-7.3c-.2-.7,0-1.4.5-1.9l15-15.5c.4-.4.6-.9.6-1.4v-5.6c0-1.1-.9-2.1-2.1-2h-5.7l-.2-.1Z"/>
        <path class="cls-1" d="M22.58.1S-1.52,19.6.08,49.4c.5,10.1,5.2,19.4,16.1,20.3,4.4.4,9.1-.3,13.2-2s6.2-4.1,6.3-4l-6.2-7s-2,2.2-4.1,3.1-7.9,1.1-10.1.1-10.2-5.4-8.3-24.4C8.88,16.5,24.68,1.9,24.68,1.9l-2.1-1.9v.1Z"/>
      </g>
    </g>
  </g>
</svg>