<?xml version="1.0" encoding="UTF-8"?>
<svg id="Layer_2" xmlns="http://www.w3.org/2000/svg" viewBox="0 0 97.54 83.25">
  <defs>
    <style>
      .cls-1 {
        fill: #fddb32;
      }

      .cls-2 {
        fill: #191e3b;
      }
    </style>
  </defs>
  <g id="Layer_1-2" data-name="Layer_1">
    <g id="svg3486">
      <g>
        <g>
          <rect class="cls-2" y="76.5" width="97.54" height="6.75"/>
          <g>
            <path class="cls-2" d="M21.81,41.6H4.67c-.83,0-1.45.62-1.45,1.45v35.32c0,.83.62,1.45,1.45,1.45h17.14c.83,0,1.45-.62,1.45-1.45v-35.32c0-.83-.62-1.45-1.45-1.45ZM17.14,75.04c0,.83-.62,1.45-1.45,1.45h-4.57c-.83,0-1.45-.62-1.45-1.45v-4.57c0-.83.62-1.45,1.45-1.45h4.57c.83,0,1.45.62,1.45,1.45v4.57ZM17.14,64.24c0,.83-.62,1.45-1.45,1.45h-4.57c-.83,0-1.45-.62-1.45-1.45v-4.57c0-.83.62-1.45,1.45-1.45h4.57c.83,0,1.45.62,1.45,1.45v4.57ZM17.14,54.06c0,.83-.62,1.45-1.45,1.45h-4.57c-.83,0-1.45-.62-1.45-1.45v-4.57c0-.83.62-1.45,1.45-1.45h4.57c.83,0,1.45.62,1.45,1.45v4.57Z"/>
            <path class="cls-2" d="M92.86,41.6h-17.14c-.83,0-1.45.62-1.45,1.45v35.32c0,.83.62,1.45,1.45,1.45h17.14c.83,0,1.45-.62,1.45-1.45v-35.32c0-.83-.62-1.45-1.45-1.45ZM87.56,75.04c0,.83-.62,1.45-1.45,1.45h-4.57c-.83,0-1.45-.62-1.45-1.45v-4.57c0-.83.62-1.45,1.45-1.45h4.57c.83,0,1.45.62,1.45,1.45v4.57ZM87.56,64.24c0,.83-.62,1.45-1.45,1.45h-4.57c-.83,0-1.45-.62-1.45-1.45v-4.57c0-.83.62-1.45,1.45-1.45h4.57c.83,0,1.45.62,1.45,1.45v4.57ZM87.56,54.06c0,.83-.62,1.45-1.45,1.45h-4.57c-.83,0-1.45-.62-1.45-1.45v-4.57c0-.83.62-1.45,1.45-1.45h4.57c.83,0,1.45.62,1.45,1.45v4.57Z"/>
            <path class="cls-2" d="M69.59,30.17H27.94c-.83,0-1.45.62-1.45,1.45v46.12c0,.83.62,1.45,1.45,1.45h17.04v-8.93c0-.83.62-1.45,1.45-1.45h4.57c.83,0,1.45.62,1.45,1.45v8.93h17.04c.83,0,1.45-.62,1.45-1.45V31.63c0-.83-.62-1.45-1.45-1.45h.1ZM39.68,75.04c0,.83-.62,1.45-1.45,1.45h-4.57c-.83,0-1.45-.62-1.45-1.45v-4.57c0-.83.62-1.45,1.45-1.45h4.57c.83,0,1.45.62,1.45,1.45v4.57ZM39.68,64.24c0,.83-.62,1.45-1.45,1.45h-4.57c-.83,0-1.45-.62-1.45-1.45v-4.57c0-.83.62-1.45,1.45-1.45h4.57c.83,0,1.45.62,1.45,1.45v4.57ZM39.68,54.06c0,.83-.62,1.45-1.45,1.45h-4.57c-.83,0-1.45-.62-1.45-1.45v-4.57c0-.83.62-1.45,1.45-1.45h4.57c.83,0,1.45.62,1.45,1.45v4.57ZM39.68,43.05c0,.83-.62,1.45-1.45,1.45h-4.57c-.83,0-1.45-.62-1.45-1.45v-4.57c0-.83.62-1.45,1.45-1.45h4.57c.83,0,1.45.62,1.45,1.45v4.57ZM52.56,64.24c0,.83-.62,1.45-1.45,1.45h-4.57c-.83,0-1.45-.62-1.45-1.45v-4.57c0-.83.62-1.45,1.45-1.45h4.57c.83,0,1.45.62,1.45,1.45v4.57ZM52.56,54.06c0,.83-.62,1.45-1.45,1.45h-4.57c-.83,0-1.45-.62-1.45-1.45v-4.57c0-.83.62-1.45,1.45-1.45h4.57c.83,0,1.45.62,1.45,1.45v4.57ZM52.56,43.05c0,.83-.62,1.45-1.45,1.45h-4.57c-.83,0-1.45-.62-1.45-1.45v-4.57c0-.83.62-1.45,1.45-1.45h4.57c.83,0,1.45.62,1.45,1.45v4.57ZM64.92,75.04c0,.83-.62,1.45-1.45,1.45h-4.57c-.83,0-1.45-.62-1.45-1.45v-4.57c0-.83.62-1.45,1.45-1.45h4.57c.83,0,1.45.62,1.45,1.45v4.57ZM64.92,64.24c0,.83-.62,1.45-1.45,1.45h-4.57c-.83,0-1.45-.62-1.45-1.45v-4.57c0-.83.62-1.45,1.45-1.45h4.57c.83,0,1.45.62,1.45,1.45v4.57ZM64.92,54.06c0,.83-.62,1.45-1.45,1.45h-4.57c-.83,0-1.45-.62-1.45-1.45v-4.57c0-.83.62-1.45,1.45-1.45h4.57c.83,0,1.45.62,1.45,1.45v4.57ZM64.92,43.05c0,.83-.62,1.45-1.45,1.45h-4.57c-.83,0-1.45-.62-1.45-1.45v-4.57c0-.83.62-1.45,1.45-1.45h4.57c.83,0,1.45.62,1.45,1.45v4.57Z"/>
            <path class="cls-2" d="M44.98,81.8c0,.83.62,1.45,1.45,1.45h4.57c.83,0,1.45-.62,1.45-1.45v-2.39h-7.58v2.39h.1Z"/>
          </g>
        </g>
        <path class="cls-1" d="M51.82,7.65h7c1.5,0,2.1,1.9.9,2.7l-5.6,4.1,2.2,6.6c.4,1.4-1.1,2.5-2.3,1.7l-5.6-4.1-5.6,4.1c-1.2.9-2.8-.3-2.3-1.7l2.2-6.6-5.6-4.1c-1.2-.9-.6-2.7.9-2.7h7l2.2-6.6c.4-1.4,2.4-1.4,2.8,0"/>
        <path class="cls-1" d="M29.32,14.65h5.3c1.5,0,2.1,1.9.9,2.7l-4.3,3.1,1.6,5.1c.4,1.4-1.1,2.5-2.3,1.7l-4.3-3.1-4.3,3.1c-1.2.9-2.8-.3-2.3-1.7l1.6-5.1-4.3-3.1c-1.2-.9-.6-2.7.9-2.7h5.3l1.6-5.1c.4-1.4,2.4-1.4,2.9,0"/>
        <path class="cls-1" d="M74.02,14.55h5.4c1.4,0,2.1,1.9.9,2.7l-4.3,3.1,1.7,5.1c.4,1.4-1.1,2.5-2.3,1.7l-4.3-3.1-4.3,3.1c-1.2.9-2.7-.3-2.3-1.7l1.7-5.1-4.3-3.1c-1.2-.9-.6-2.7.9-2.7h5.4l1.7-5.1c.4-1.4,2.4-1.4,2.8,0"/>
      </g>
    </g>
  </g>
</svg>