<?xml version="1.0" encoding="UTF-8"?>
<svg xmlns="http://www.w3.org/2000/svg" xmlns:svg="http://www.w3.org/2000/svg" xmlns:sodipodi="http://sodipodi.sourceforge.net/DTD/sodipodi-0.dtd" xmlns:rdf="http://www.w3.org/1999/02/22-rdf-syntax-ns#" xmlns:inkscape="http://www.inkscape.org/namespaces/inkscape" xmlns:dc="http://purl.org/dc/elements/1.1/" xmlns:cc="http://creativecommons.org/ns#" version="1.1" viewBox="0 0 1000 201.2">
  <defs>
    <style>
      .cls-1 {
        stroke: #fddb32;
        stroke-miterlimit: 10;
        stroke-width: 2px;
      }

      .cls-1, .cls-2 {
        fill: #fddb32;
      }

      .cls-3 {
        fill: #191e3b;
      }
    </style>
  </defs>
  <!-- Generator: Adobe Illustrator 28.7.6, SVG Export Plug-In . SVG Version: 1.2.0 Build 188)  -->
  <g>
    <g id="Layer_1">
      <g id="svg3486">
        <sodipodi:namedview id="base" bordercolor="#666666" borderopacity="1.0" fit-margin-bottom="0" fit-margin-left="0" fit-margin-right="0" fit-margin-top="0" inkscape:current-layer="g3744" inkscape:cx="470.94675" inkscape:cy="28.774083" inkscape:document-units="mm" inkscape:guide-bbox="true" inkscape:pageopacity="0.0" inkscape:pageshadow="2" inkscape:snap-smooth-nodes="true" inkscape:window-height="705" inkscape:window-maximized="1" inkscape:window-width="1366" inkscape:window-x="-8" inkscape:window-y="-8" inkscape:zoom="0.70710678" pagecolor="#ffffff" showgrid="false" showguides="false" units="px">
          <sodipodi:guide id="guide3499" inkscape:locked="false" orientation="0,1" position="149.74285,109.70703"/>
          <sodipodi:guide id="guide3517" inkscape:locked="false" orientation="0,1" position="301.72942,3.2901383"/>
          <sodipodi:guide id="guide3528" inkscape:locked="false" orientation="1,0" position="282.05295,94.752445"/>
          <sodipodi:guide id="guide3542" inkscape:locked="false" orientation="1,0" position="268.87824,81.543505"/>
          <sodipodi:guide id="guide3613" inkscape:locked="false" orientation="2.6769023e-008,1" position="301.72941,83.642861"/>
          <sodipodi:guide id="guide3620" inkscape:locked="false" orientation="0,1" position="434.25126,66.977316"/>
          <sodipodi:guide id="guide3649" inkscape:locked="false" orientation="-0.70710678,0.70710678" position="-41.020771,85.485731"/>
          <sodipodi:guide id="guide3658" inkscape:locked="false" orientation="0,1" position="-39.417671,17.219858"/>
        </sodipodi:namedview>
        <g id="layer1" inkscape:groupmode="layer" inkscape:label="Layer 1">
          <g id="g3760">
            <g id="g3734">
              <path id="rect3505" class="cls-3" d="M248.9,15.3c-5.8,0-10.5,4.7-10.5,10.5v128c0,5.8,4.7,10.5,10.5,10.5h80.5c1.5,0,2.7-1.2,2.7-2.7v-14.7c0-1.5-1.2-2.7-2.7-2.7h-68.4v-46.8h61.5c1.5,0,2.7-1.2,2.7-2.7v-13.9c0-1.5-1.2-2.7-2.7-2.7h-61.5v-42.9h68.4c1.5,0,2.7-1.2,2.7-2.7v-14.2c0-1.5-1.2-2.7-2.7-2.7h-80.5v-.3Z" inkscape:connector-curvature="0" sodipodi:nodetypes="ssssssssccssssccsssss"/>
              <path id="rect3515" class="cls-3" d="M520.6,52.6c-19.2,0-31,6.6-39,17.6v-11.5c0-1.5-1.2-2.7-2.7-2.7h-16.6c-1.5,0-2.7,1.2-2.7,2.7v139.7c0,1.5,1.2,2.7,2.7,2.7h16.9c1.5,0,2.7-1.2,2.7-2.7v-47.8c7.4,10.6,19.4,16.9,38.7,16.9,32.6,0,52.8-25.8,52.8-57.5s-19.9-57.5-52.8-57.5h0ZM515.9,71.1c23.4,0,35,17.4,35,39s-11.5,39-35,39-35-17.4-35-39,11.5-39,35-39Z" inkscape:connector-curvature="0" sodipodi:nodetypes="scsssssssscssszczcz"/>
              <path id="rect3532" class="cls-3" d="M847.6,56h16.7c1.5,0,2.7,1.2,2.7,2.7v102.8c0,1.5-1.2,2.7-2.7,2.7h-16.7c-1.5,0-2.7-1.2-2.7-2.7V58.7c0-1.5,1.2-2.7,2.7-2.7h0Z" inkscape:connector-curvature="0"/>
              <path id="rect3534" class="cls-3" d="M847.4,15.3h17.1c1.5,0,2.7,1.2,2.7,2.7v17.1c0,1.5-1.2,2.7-2.7,2.7h-17.1c-1.5,0-2.7-1.2-2.7-2.7v-17.1c0-1.5,1.2-2.7,2.7-2.7Z" inkscape:connector-curvature="0"/>
              <path id="path3546" class="cls-3" d="M760,167.6c19.2,0,31-6.6,39-17.6v11.5c0,1.5,1.2,2.7,2.7,2.7h16.6c1.5,0,2.7-1.2,2.7-2.7V18.1c0-1.5-1.2-2.7-2.7-2.7h-16.9c-1.5,0-2.7,1.2-2.7,2.7v52.1c-7.9-10.4-19.4-17.5-38.7-17.5-32.6,0-52.8,25.8-52.8,57.5s19.9,57.5,52.8,57.5h0ZM764.7,149.1c-23.4,0-35-17.4-35-39s11.5-39,35-39,35,17.4,35,39-11.5,39-35,39Z" inkscape:connector-curvature="0" sodipodi:nodetypes="scsssssssscssszczcz"/>
              <path id="path3557" class="cls-3" d="M938.9,52.7c-33,0-52.8,25.7-52.8,57.5s19.9,57.5,52.8,57.5,31-6.6,39-17.6v11.5c0,1.5,1.2,2.7,2.7,2.7h16.6c1.5,0,2.7-1.2,2.7-2.7V58.7c0-1.5-1.2-2.7-2.7-2.7h-16.6c-1.5,0-2.7,1.2-2.7,2.7v11.5c-8-11-19.9-17.6-39-17.6h0ZM943.7,71.2c23.4,0,35,17.4,35,39s-11.5,39-35,39-35-17.4-35-39,11.5-39,35-39Z" inkscape:connector-curvature="0"/>
              <path id="rect3567" class="cls-3" d="M349.9,56c-2.4,0-2.8,1.9-1.7,3.4l35.3,48.3-38.7,53.3c-1.1,1.5-.7,3.4,1.7,3.4h19.1c1.7,0,2.5-.6,3.1-1.4l26.4-38.9,27.5,38.9c.6.8,1.4,1.4,3.1,1.4h19.8c2.4,0,2.8-1.9,1.7-3.4l-38.9-53.3,35.1-48.3c1.1-1.5.7-3.4-1.7-3.4h-18.7c-1.7,0-2.5.6-3.1,1.4l-23.2,34-23.9-34c-.6-.8-1.4-1.4-3.1-1.4h-19.8Z" inkscape:connector-curvature="0" sodipodi:nodetypes="sccssssccsscccsscccss"/>
              <path id="path3599" class="cls-3" d="M640.3,52.6c-33.2,0-53.1,23.8-53.1,57.5s23.6,57.5,53.1,57.5,49.8-21,50.5-21.8c.9-.9.7-2.6,0-3.3l-10.3-10.1c-.8-.7-2.2-.9-3.2.1-.8.8-13.3,16.6-33.9,16.6s-32.6-13.4-34.1-33.1h81.5c2.5,0,2.7-2.2,2.7-3.7.2-40.1-23.1-59.7-53.1-59.7h0ZM640.4,70c20.1,0,28.5,12.1,30.2,29.2h-60.6c2.4-16.8,11.2-29.2,30.3-29.2h0Z" inkscape:connector-curvature="0" sodipodi:nodetypes="sscccccccssssccs"/>
            </g>
            <g id="g3744">
              <path id="rect3636" class="cls-2" d="M37.3,0h105.3c20.6,0,37.2,16.6,37.2,37.3v105.3c0,20.7-16.6,37.3-37.3,37.3H37.3c-20.7-.1-37.3-16.7-37.3-37.3V37.3C0,16.6,16.6,0,37.3,0Z" inkscape:connector-curvature="0"/>
              <g id="g3738">
                <path id="path3707" class="cls-3" d="M50.3,32.2c-1.7,0-2.7.4-3.6,1.3l-18,18c-.3.3-.5.8-.5,1.3,0,1,.8,1.8,1.8,1.8h77.9l-47.9,47.9c-.9.9-1.5,1.5-1.5,3.3v12.6c0,.8.3,1.4.8,1.9s1.2.8,1.9.8h12.6c1.9,0,2.4-.5,3.3-1.5l47.9-47.9v77.9c0,1,.8,1.8,1.8,1.8s.9-.2,1.3-.5l18-18c.9-.9,1.3-1.9,1.3-3.6V44.2c0-6.6-5.4-12-12-12H50.3Z" inkscape:connector-curvature="0"/>
                <path id="rect3709" class="cls-3" d="M35,124.6h17.3c1.4,0,2.6,1.2,2.6,2.6v17.4c0,1.4-1.2,2.6-2.6,2.6h-17.3c-1.4,0-2.6-1.2-2.6-2.6v-17.4c0-1.4,1.2-2.6,2.6-2.6Z" inkscape:connector-curvature="0"/>
              </g>
            </g>
          </g>
        </g>
        <g>
          <g>
            <path class="cls-3" d="M338.4-108.9c0,9.1-7.4,16.4-16.4,16.4s-16.4-7.4-16.4-16.4,0-.3,0-.5h-19.7v22.2c0,.8.6,1.4,1.4,1.4h69.4c.8,0,1.4-.6,1.4-1.4v-22.2h-19.7v.5h0Z"/>
            <path class="cls-3" d="M349.1-132.5h-13.6v-2.3c0-5-4-9-9-9h-9.2c-5,0-9,4-9,9v2.3h-13.5c-5,0-9,4-9,9v8h21.1c2.6-5.8,8.3-9.8,15-9.8s12.5,4,15,9.8h21.1v-8c0-5-4-9-9-9h.1ZM295.9-118.9c-2,0-3.6-1.6-3.6-3.6s1.6-3.6,3.6-3.6,3.6,1.6,3.6,3.6-1.6,3.6-3.6,3.6Z"/>
          </g>
          <circle class="cls-2" cx="321.9" cy="-108.3" r="12.1"/>
          <rect class="cls-2" x="319" y="-166" width="6" height="15.3"/>
          <rect class="cls-2" x="307.9" y="-163.6" width="6" height="15.3" transform="translate(68.6 93.6) rotate(-19.2)"/>
          <rect class="cls-2" x="326.4" y="-158.8" width="15.3" height="6" transform="translate(371.3 210.8) rotate(-70.8)"/>
        </g>
        <g>
          <g>
            <rect class="cls-3" x="163.7" y="-92" width="97.5" height="6.8"/>
            <g>
              <path class="cls-3" d="M185.5-126.9h-17.1c-.8,0-1.5.6-1.5,1.5v35.3c0,.8.6,1.5,1.5,1.5h17.1c.8,0,1.5-.6,1.5-1.5v-35.3c0-.8-.6-1.5-1.5-1.5ZM180.8-93.4c0,.8-.6,1.5-1.5,1.5h-4.6c-.8,0-1.5-.6-1.5-1.5v-4.6c0-.8.6-1.5,1.5-1.5h4.6c.8,0,1.5.6,1.5,1.5v4.6ZM180.8-104.2c0,.8-.6,1.5-1.5,1.5h-4.6c-.8,0-1.5-.6-1.5-1.5v-4.6c0-.8.6-1.5,1.5-1.5h4.6c.8,0,1.5.6,1.5,1.5v4.6ZM180.8-114.4c0,.8-.6,1.5-1.5,1.5h-4.6c-.8,0-1.5-.6-1.5-1.5v-4.6c0-.8.6-1.5,1.5-1.5h4.6c.8,0,1.5.6,1.5,1.5v4.6Z"/>
              <path class="cls-3" d="M256.5-126.9h-17.1c-.8,0-1.5.6-1.5,1.5v35.3c0,.8.6,1.5,1.5,1.5h17.1c.8,0,1.5-.6,1.5-1.5v-35.3c0-.8-.6-1.5-1.5-1.5ZM251.2-93.4c0,.8-.6,1.5-1.5,1.5h-4.6c-.8,0-1.5-.6-1.5-1.5v-4.6c0-.8.6-1.5,1.5-1.5h4.6c.8,0,1.5.6,1.5,1.5v4.6ZM251.2-104.2c0,.8-.6,1.5-1.5,1.5h-4.6c-.8,0-1.5-.6-1.5-1.5v-4.6c0-.8.6-1.5,1.5-1.5h4.6c.8,0,1.5.6,1.5,1.5v4.6ZM251.2-114.4c0,.8-.6,1.5-1.5,1.5h-4.6c-.8,0-1.5-.6-1.5-1.5v-4.6c0-.8.6-1.5,1.5-1.5h4.6c.8,0,1.5.6,1.5,1.5v4.6Z"/>
              <path class="cls-3" d="M233.3-138.3h-41.7c-.8,0-1.5.6-1.5,1.5v46.1c0,.8.6,1.5,1.5,1.5h17v-8.9c0-.8.6-1.5,1.5-1.5h4.6c.8,0,1.5.6,1.5,1.5v8.9h17c.8,0,1.5-.6,1.5-1.5v-46.1c0-.8-.6-1.5-1.5-1.5h.1ZM203.4-93.4c0,.8-.6,1.5-1.5,1.5h-4.6c-.8,0-1.5-.6-1.5-1.5v-4.6c0-.8.6-1.5,1.5-1.5h4.6c.8,0,1.5.6,1.5,1.5v4.6ZM203.4-104.2c0,.8-.6,1.5-1.5,1.5h-4.6c-.8,0-1.5-.6-1.5-1.5v-4.6c0-.8.6-1.5,1.5-1.5h4.6c.8,0,1.5.6,1.5,1.5v4.6ZM203.4-114.4c0,.8-.6,1.5-1.5,1.5h-4.6c-.8,0-1.5-.6-1.5-1.5v-4.6c0-.8.6-1.5,1.5-1.5h4.6c.8,0,1.5.6,1.5,1.5v4.6ZM203.4-125.4c0,.8-.6,1.5-1.5,1.5h-4.6c-.8,0-1.5-.6-1.5-1.5v-4.6c0-.8.6-1.5,1.5-1.5h4.6c.8,0,1.5.6,1.5,1.5v4.6ZM216.2-104.2c0,.8-.6,1.5-1.5,1.5h-4.6c-.8,0-1.5-.6-1.5-1.5v-4.6c0-.8.6-1.5,1.5-1.5h4.6c.8,0,1.5.6,1.5,1.5v4.6ZM216.2-114.4c0,.8-.6,1.5-1.5,1.5h-4.6c-.8,0-1.5-.6-1.5-1.5v-4.6c0-.8.6-1.5,1.5-1.5h4.6c.8,0,1.5.6,1.5,1.5v4.6ZM216.2-125.4c0,.8-.6,1.5-1.5,1.5h-4.6c-.8,0-1.5-.6-1.5-1.5v-4.6c0-.8.6-1.5,1.5-1.5h4.6c.8,0,1.5.6,1.5,1.5v4.6ZM228.6-93.4c0,.8-.6,1.5-1.5,1.5h-4.6c-.8,0-1.5-.6-1.5-1.5v-4.6c0-.8.6-1.5,1.5-1.5h4.6c.8,0,1.5.6,1.5,1.5v4.6ZM228.6-104.2c0,.8-.6,1.5-1.5,1.5h-4.6c-.8,0-1.5-.6-1.5-1.5v-4.6c0-.8.6-1.5,1.5-1.5h4.6c.8,0,1.5.6,1.5,1.5v4.6ZM228.6-114.4c0,.8-.6,1.5-1.5,1.5h-4.6c-.8,0-1.5-.6-1.5-1.5v-4.6c0-.8.6-1.5,1.5-1.5h4.6c.8,0,1.5.6,1.5,1.5v4.6ZM228.6-125.4c0,.8-.6,1.5-1.5,1.5h-4.6c-.8,0-1.5-.6-1.5-1.5v-4.6c0-.8.6-1.5,1.5-1.5h4.6c.8,0,1.5.6,1.5,1.5v4.6Z"/>
              <path class="cls-3" d="M208.7-86.7c0,.8.6,1.5,1.5,1.5h4.6c.8,0,1.5-.6,1.5-1.5v-2.4h-7.6v2.4h.1Z"/>
            </g>
          </g>
          <path class="cls-2" d="M215.5-160.8h7c1.5,0,2.1,1.9.9,2.7l-5.6,4.1,2.2,6.6c.4,1.4-1.1,2.5-2.3,1.7l-5.6-4.1-5.6,4.1c-1.2.9-2.8-.3-2.3-1.7l2.2-6.6-5.6-4.1c-1.2-.9-.6-2.7.9-2.7h7l2.2-6.6c.4-1.4,2.4-1.4,2.8,0"/>
          <path class="cls-2" d="M193-153.8h5.3c1.5,0,2.1,1.9.9,2.7l-4.3,3.1,1.6,5.1c.4,1.4-1.1,2.5-2.3,1.7l-4.3-3.1-4.3,3.1c-1.2.9-2.8-.3-2.3-1.7l1.6-5.1-4.3-3.1c-1.2-.9-.6-2.7.9-2.7h5.3l1.6-5.1c.4-1.4,2.4-1.4,2.9,0"/>
          <path class="cls-2" d="M237.7-153.9h5.4c1.4,0,2.1,1.9.9,2.7l-4.3,3.1,1.7,5.1c.4,1.4-1.1,2.5-2.3,1.7l-4.3-3.1-4.3,3.1c-1.2.9-2.7-.3-2.3-1.7l1.7-5.1-4.3-3.1c-1.2-.9-.6-2.7.9-2.7h5.4l1.7-5.1c.4-1.4,2.4-1.4,2.8,0"/>
        </g>
        <g>
          <path class="cls-3" d="M454.4-127.5h-3.3l-.7-15.7c0-3.2-2.6-5.8-5.8-5.8h-8.8v-1.5c0-3.2-2.6-5.8-5.8-5.8h-6c-3.2,0-5.8,2.6-5.8,5.8v1.5h-8.7c-3.2,0-5.8,2.6-5.8,5.8v15.7h-3.7c-2.3,0-4,2.2-3.3,4.5l7.1,22.7h46.6l7.6-22.4c.8-2.2-.9-4.6-3.2-4.6h-.2ZM429.1-135.3c-1.3-.5-2.6-.5-3.9,0l-15.8,6.1v-11.7c0-2.4,1.9-4.3,4.3-4.3h26.2c2.4,0,4.3,1.9,4.3,4.3l.6,11.7-15.8-6.1Z"/>
          <g id="bZMMAD">
            <g>
              <path class="cls-1" d="M438.8-84.5c-4,0-8-1-11.5-3.1-.2-.1-.7-.1-1,0-7.7,4.2-15.3,4.2-22.9,0-.4-.2-.8,0-1.1,0-6.2,3.5-12.8,3.9-19.5,1.4-1.1-.4-1.5-1.2-1.1-2.1.3-.9,1.1-1.1,2.2-.8,6.3,2.2,12.4,1.8,18.1-2.1.7-.4,1.3-.4,2,0,7.3,4.6,14.6,4.6,21.9,0,.8-.4,1.4-.3,2.1.1,6.2,4,12.8,4.3,19.5,1.3.8-.3,1.5-.9,2.3-1.4.7-.4,1.3-.4,2,0,5.7,3.8,11.8,4.3,18.2,2.1,1-.3,1.8,0,2.1.8.3.9,0,1.6-1.1,2-6.7,2.5-13.2,2.1-19.5-1.4-.5-.3-.9-.3-1.4,0-3.4,2.1-7.2,3-11.2,3v.2Z"/>
              <path class="cls-1" d="M463.1-97.9c-4.6,0-8.4-1-11.8-3.1-.4-.2-.7-.2-1.1,0-7.6,4.2-15.1,4.2-22.8,0-.4-.2-.7-.2-1.1,0-7.6,4.2-15.1,4.2-22.8,0-.5-.3-.9-.1-1.3,0-6.3,3.5-12.8,3.9-19.5,1.4-1.2-.4-1.5-1.5-.9-2.4.5-.7,1.3-.7,2.1-.3,4.3,1.6,8.6,1.8,13,.3,1.6-.5,3.2-1.4,4.7-2.3.9-.4,1.5-.5,2.3,0,6.5,4.4,15.1,4.4,21.6,0,.8-.5,1.4-.5,2.3,0,6.5,4.4,15.1,4.4,21.6,0,.8-.5,1.4-.5,2.3,0,5.6,3.7,11.5,4.2,17.7,2.1.2,0,.4-.2.7-.2.9-.2,1.5.2,1.9,1,.2.8,0,1.5-.9,1.9-1.8.5-3.5,1.1-5.4,1.4-1.1.2-2.2.2-2.7.2h.1Z"/>
            </g>
          </g>
        </g>
        <g>
          <path class="cls-3" d="M557.7-130.4h-5.4c-1.8,0-3.3-1.5-3.3-3.3l-3.5-10.4c-1.5-3.6-4.8-6.1-8.7-6.4h-32.8c-3.9.3-7.2,2.9-8.7,6.4l-3.5,10.4c0,1.8-1.5,3.3-3.3,3.3h-5.4c-1.2,0-2.2,1-2.2,2.2v5.8c0,1.3,1.1,2.5,2.5,2.5h1.4v31.8c0,1.8,1.5,3.3,3.3,3.3h7.7c1.8,0,3.3-1.5,3.3-3.3v-6.9h42.8v6.9c0,1.8,1.5,3.3,3.3,3.3h7.7c1.8,0,3.3-1.5,3.3-3.3v-31.8h1.4c1.3,0,2.5-1.1,2.5-2.5v-5.8c0-1.2-1-2.2-2.2-2.2h-.2ZM540.9-124.4h-40.9c-1.5,0-2.5-1.4-2-2.8l4.5-14.3c.3-.9,1.1-1.5,2-1.5h32.1c1,0,1.8.6,2,1.5l4.3,14.3c.4,1.4-.6,2.8-2,2.8Z"/>
          <path class="cls-2" d="M494.3-114.6v6.6c0,1.2,1,2.1,2.1,2.1h10.8c1.2,0,2.1-1,2.1-2.1h0c0-4.9-6-8.8-10.9-8.8h-2.1c-1.2,0-2.1,1-2.1,2.1h.1Z"/>
          <path class="cls-2" d="M545.9-114.6v6.6c0,1.2-1,2.1-2.1,2.1h-10.8c-1.2,0-2.1-1-2.1-2.1h0c0-4.9,6-8.8,10.9-8.8h2.1c1.2,0,2.1,1,2.1,2.1h-.1Z"/>
        </g>
        <g>
          <path class="cls-3" d="M657.4-148.9c-.5,0-1.1.2-1.4.6l-15.5,15c-.5.5-1.3.7-1.9.5l-7.3-1.9c-1.3-.3-1.9-1.8-1.3-2.9l1.3-2.3c.4-.8.3-1.8-.3-2.4l-1.4-1.4c-.7-.7-1.9-.8-2.7-.1l-4.6,3.7c-.6.5-1.5.6-2.3.2l-7.3-4c-1.2-.6-2.6-.5-3.7.2l-3.2,2.3c-1.2.9-1.1,2.6,0,3.4l22.5,13.6c1.1.7,1.3,2.1.5,3.1l-12,13.7c-.5.6-1.3.8-2,.6l-8.4-2c-.6-.2-1.3,0-1.8.5l-1.9,1.7c-1,.9-.9,2.6.4,3.3l11,6,5.8,10.5c.7,1.2,2.4,1.4,3.3.4l1.7-1.9c.4-.5.6-1.2.5-1.8l-2-8.4c-.2-.7,0-1.5.6-2l13.7-12c1-.8,2.4-.6,3.1.5l13.6,22.5c.8,1.2,2.5,1.3,3.4,0l2.3-3.2c.8-1.1.9-2.5.2-3.7l-4-7.3c-.4-.7-.3-1.6.2-2.3l3.7-4.6c.7-.8.6-2,0-2.7l-1.4-1.4c-.6-.6-1.6-.8-2.4-.3l-2.3,1.3c-1.2.6-2.6,0-2.9-1.3l-1.9-7.3c-.2-.7,0-1.4.5-1.9l15-15.5c.4-.4.6-.9.6-1.4v-5.6c0-1.1-.9-2.1-2.1-2h-5.9Z"/>
          <path class="cls-2" d="M599.4-154.2s-24.1,19.5-22.5,49.3c.5,10.1,5.2,19.4,16.1,20.3,4.4.4,9.1-.3,13.2-2s6.2-4.1,6.3-4l-6.2-7s-2,2.2-4.1,3.1-7.9,1.1-10.1,0-10.2-5.4-8.3-24.4c1.9-19,17.7-33.6,17.7-33.6l-2.1-1.9h0Z"/>
        </g>
      </g>
    </g>
  </g>
</svg>