<?xml version="1.0" encoding="UTF-8"?>
<svg id="Layer_1" xmlns="http://www.w3.org/2000/svg" version="1.1" viewBox="0 0 2168 548">
  <!-- Generator: Adobe Illustrator 29.8.2, SVG Export Plug-In . SVG Version: 2.1.1 Build 3)  -->
  <defs>
    <style>
      .st0 {
        fill: #ffca2f;
      }

      .st1 {
        fill: #fff;
      }
    </style>
  </defs>
  <path d="M1034.1,51.8c1.9-2,6-3.9,8.8-3.5,6.5,1.1,9.6,21.7,11.6,27.5,6.5,19.1,14.7,44.6,22.5,62.7,2,4.7,4.4,9.8,8.2,13.3,5.5-4.2,4.2-12,7-17.7,1.2-2.5,4.1-4.8,5.5-7.2,3.9-6.4,5.5-14.2,8.8-20.7,2.5-4.8,9-13.5,10.6-18.1,3.9-11.5,12.6-26.5,13.9-38.8.4-3.6-2.3-9.9,0-12.7s9.2-4.1,12-1.6,5,21.6,6.4,27.1c2,7.6,5.4,13.9,7.7,21,5.2,16.4,6.2,34.8,16.6,49.5,18.5-26.3,33.6-55,48.9-83.2-2.5-7,2.7-13.4,10.1-12.4,4.9.7,5.3,6,5.8,10.1,2.1,16.8,2.9,42.8,1.7,59.6-.5,6.3-2.8,12.9-3.2,19.1-.9,12.8-.8,34.3,1,46.8,1.4,9.3,9.2,31.3,7.4,38.9-.9,3.6-5.1,8.3-8.9,8.7-2.3.2-4.9-1.3-7.1-1.2-2.5,0-6.3,1.8-9.5,2-12.2.9-25.1-1.5-37.5-.9-16.1.9-30.2,4-47,4s-30.5,3-43.8,1.6c-7.5-.8-7.6-2.1-16.8-1.6-26.4,1.6-52.9,9.5-80.5,5.6-7.3-1-9.9-13.2-3.8-15,7.1-2.1,8.8,5.8,12-7.1,4.7-19,13.9-40.6,17.4-59.1,2.6-13.8,3.4-25.7,6.9-40.1,2.1-8.4,3.1-16.3,4.7-24.8.9-5.1,4.6-15.5,3.7-19.8s-5.9-7-1.1-12.2h0v.2ZM1206.3,100.4c-7,12.1-15.6,24.5-22,36.6-2.3,4.4-6.5,18.9-10.6,19.7-11.7,2.2-12.1-20-14.5-27.7-1.5-4.6-5.6-10.2-6.3-13.7-.4-2.5.7-3.8.4-5.8-1.1-7.5-11.4-32-15.6-38.6-3-4.6-4.7,2.7-5.8,5.7-3.7,10.1-7.4,21-12.6,30.4-8.1,14.8-14.5,30.6-21.8,45.9-1.6,3.4-7,20.4-9.2,21.1-3.2.8-8.1-.6-9.7-3.6-3.2-6.1-3.7-16-7.8-21.7-1.4-1.9-4-3.4-5-5.4s0-3.6-.5-5.8c-1.5-5.6-7.1-17-9.6-23.1-2.8-6.8-7.6-19.8-11.1-25.5-.7-1.2-1-2.7-2.8-2.4-2.9,16.7-6.3,33.3-9.3,50-2.9,15.8-4.4,24.8-9.2,40.2-4,12.9-8.7,26-8.5,39.7,16.5,1.4,32.2-2.5,48.3-4.7,5.2-.7,10.8-.4,15.7-1,3.5-.4,8.4-3.2,11.3-3.1s5.5,3.2,8.9,3.8c13.5,2.3,24.1-3.7,35.7-3.9,4.6,0,8,2.6,12,3.2,12.4,1.6,31.2-4,44.6-4.7,10.1-.5,19.8,1.5,29.5.8,2.5-.2,5.1.1,7.6,0,1-8.9-1-17.4-1.6-25.9-.9-12-.7-23.9-1.6-35.8-.4-4.8-3.3-11.7-3.3-15.1s1.7-4.2,2.2-6.6c3.7-16.6,1.2-34.4,1-51.2-5.1-.8-5.6,6.4-7.8,10.1-3.5,6-7.5,12.1-11,18.1h0Z"/>
  <path d="M1451.6,284.4c-3.4,3.3-14.4,12.3-11.2,17.9.2.4,5.2,5.1,5.9,5.6,3.1,2.3,6.6,2.6,9.3,4.2,8.8,5.1,15.3,7.8,24.6,12,5.8,2.6,26.5,16.8,30.9,21.1,5.6,5.5,6.1,10,6.2,17.7-2.3-.5-2.4,1.5-3.7,2.3-6.2,3.4-26.7,4.7-34.8,6.1-11,1.9-38.2,9.4-47.5,5.7-2.9-1.1-4.2-4.7-7.5-5.2-3.4,4.7-3.6,10.4-9.6,12.8-5.8-1.3-6.7-8.8-9.1-11.5-.7-.8-2-.3-2.3-.6-.2-.2-.9-4.9-1.4-6.2-1.6-4.3-6.7-13.4-7.3-16.6-.5-2.4.9-4.9-.6-6.5-4-4.2-20.6-6.3-26.3-5.6-9.5,1.1-4,14.6-12.3,17.1,1.9,2.3,2,6.7,1.6,9.6,0,1.1-2.7,7.8-3.2,8.7-2.8,4.7-12.9,4.1-14.9-1.8-2.3-7,1.9-6.4,2.8-9.5,1.8-6.4,2.3-13.2,4.7-20,.6-1.8,2.5-3.6,2.6-5.3,0-2.8-3.2-5.5-3.7-8.2-1.8-8.8,6.7-8.4,9.7-14.6,1.1-2.2,1.6-6.3,2.4-8.7.7-1.9,2.8-4.2,3.4-6.2,2.4-8.7,3-18.9,10.7-25.2,3.6-2.9,5.6-2.8,9.9-.5,4.6,2.4,3.8,3.8,5.4,7.4,3,6.9,6.2,24.2,8.8,27.5,4,5.1,1.5,2.5,3.1,7.7.3,1,1.6,1.5,1.8,2.2.7,1.9.4,3.8,1.6,5.5.6.8,5.8,4.2,6.7,4.4,3.7,1.1,14.5-.6,15.9,4.1,1.9,6.5-12.3,6.4-15,8.6s.7,5,1.2,6.8c.3,1-.4,2.1,0,3.2,2.3,5.8,7.2,11.4,10.3,16.8,1.7.4,3.2-4.4,4.9-5.5.4-.2,6-2.4,6.4-2.5,2.4-.3,7.8,3.3,11.1,2.5,17.2-2.3,34.6-2.8,51-8.8,5.6-5.9-8.1-9-11.9-11.3-1.6-1-5-5-5.5-5.3-12.4-6.4-27.2-10.5-39-18.6-5.8-4-12.2-8.9-13.2-16.5-.3-2.1.3-12.3.7-14,.3-.9,4.7-5.3,5.8-6.1,16.3-13.2,51.2-20.3,70.7-14.9,1.8.5,10.8,4.9,11.4,6.2.7,1.4.7,5.1.2,6.6-1.9,6.5-12.3,0-16.2-.3-5.3-.4-15.3,1-20.8,1.5-8.4.9-16.6,2.3-24.8,4.3h.1ZM1370.3,320.6c2.2,2.1,13.3,4.2,14.1,1.3,0-.5-1.7-8.8-2-9.8-.5-1.7-4.9-9.1-6.3-9.6-1.4,0-2.9,3.6-3.3,4.6-.9,2.2-3.4,11.8-2.5,13.5h0Z"/>
  <path d="M1589.9,270.7c3.2,9.1,11.9,7.3,17,16.1,2.5,4.3,4.4,8.4,7,12.9,6.4,10.9,3.9,38.2-1,50-2.1,5.1-9.4,14.8-13.7,18.2-2.2,1.7-14.6,8-15,9-1.4,3.2.5,3.7.9,6,.9,4.6,1.5,8.5,3.9,12.9,1.9,3.4,5.3,5.4,7.5,8.4-3.1,6-4.7,13.4-13.2,12.4-.8,0-5.3-2.3-5.7-2.7-.7-.6-.9-2.3-1.8-3.4-3-3.2-5.6-3.9-5.7-8.8,0-5.3,1.5-6-.6-12.1-2.4-7-4.5-8.8-12.1-8.6-7.9-5.3-18.9-6.2-24.6-14.4-1.2-1.8-7.6-11.1-7.9-12-7.1-25-4.9-55.3,15.7-73.6,11.1-9.9,26.5-12.6,41.2-11.9,2.3.1,5.4,2.3,8.3,1.7h-.2ZM1596.7,299.7c-8.6-8.9-19.2-10.7-31.1-11.5-4.5,1.2-4.7,7.8-8.4,9.1-3.6,1.3-6-2.2-9.8,1.3-5.5,4.9-10.4,20.1-10.8,27.4-.3,4.9,1,7.7,1.5,12.1,0,1.2-.9,2.6-.6,3.7.3,1.4,2.9,2.5,3.5,3.8,1.8,4.1-.2,8.1,5.6,12,.4.3,6.1,3.1,6.4,3.1,7,1.4,7.4-4.3,6.8-10-.4-4.2-4.3-12.2-4-15.9.2-2.1,4.6-9.6,6.8-10,6.4-1.3,9,1.3,11.9,6.4-.6,9.2,3.4,17.6,5.7,26.3,5.3,3.5,10.3-7.4,14.6-9.4,2.2-2.6,8.6-17.5,8.8-20.5.2-3.6-1.7-8.4-1.7-11.9s1.6-4.2,1.5-5.4c-.2-2.4-4.8-8.6-6.6-10.5h-.1Z"/>
  <path d="M619.6,326.4c.8,2.8,2.9,4.9,3.7,7.7.7,2.4,3.5,13.8,3.5,15.7,0,6.3-2.5,14.5-2.5,20.7s1.4,3.8,1.6,5.6c.6,5.5,1.2,13.7-6.7,12.3-5.8-1.1-9.8-8.3-10.1-13.9-.2-4.5,2.4-9.3-1.5-12.8-2.7-2.4-6.2-2-9.5-3.2-10.9-4.2-38.1-32.5-48.4-42.1-1.7-1.6-7.8-9.4-9.9-8.1-3.2,2-.5,5.6-.2,7.4,2,12.6.9,25.5,2.6,37.3.3,2.1,1.6,3,1.7,5.5,0,.9,0,10.4-.2,11-.4,2.3-3.1,11.3-4.3,13.3-3.6,5.8-8.1,6.4-14.6,5.5-2.9-7.1,1.3-14.3,2.1-21.3,1-8.7-1.9-13.6-3-21.3-.8-5.4,0-12.7-.9-18.2-1.5-10-4.5-16.8-3.1-28,.7-6.2,7.1-8.1,7.9-16.8.2-1.7-.9-3.2-.6-4.5,0-.3,2.9-5,3.2-5.2,6.3-3.7,11.6,8.8,14.2,12.2,9.2,12.3,21.3,22.5,31.6,34.1,2,2.3,5,8.2,6.2,9.3s4.5,2.4,6.4,4c4.8,4,9.3,8.8,15.2,11.1,1.3,0,1.8-.9,2-2,.4-2.5.3-10.8,0-13.6-1.2-11.9-3.4-23.6-1.6-35.8.3-2.2,2.7-5.5,2.8-7.2,0-3.3-1.4-3.6.6-8.5s4.8-8.6,10.4-5.3c6.8,4.1,1.8,7.3,1.5,12.1-.2,5.3,1.7,10.7,2.2,15.3.6,5.3-1.4,13.1-1.5,18.3,0,3.2,3.8,8.5-.9,9.2h0v.2Z"/>
  <path d="M955.1,319.9c3,2.4,5.2,1.5,7.9,2,3.6.7,9.1,2.5,12.4,2.8,2.7.2,14.6.5,16.3-.4.3-.1,3.9-4.6,3.9-4.9.2-1.2-1.7-1.9-2.2-3.3-2-5.8.2-7.9.6-11.8.3-3.4,0-9.5.3-13.4.3-2.9.7-5.8.6-8.8,3.3-3.3,8.2-1.6,12.2-.6.4,7.6,1.4,15.3.4,22.8,0,2.5,2.4,5,2.4,7.3s-1.7,2.8-1.6,4.6c0,2.8,2.5,8.8,2.5,12.8s-1.5,3.8-1.5,5.4c0,3.2,3.2,7.7,2.3,11.6,6.1.6,11.3,4.1,16.8,5.9,7.6,2.6,16.7,4,23.9,6.3,4.3,1.4,9.1,5.2,14.1,6.6,5.7,1.5,12.4,1.1,17.9,2.8,2.3.7,5.3,3.3,8.2,3.8,5.3.8,13.8-.7,19.6.4,1.1.2,2.4,1.2,3.7,1.5.8,6.1-5.8,9.3-10.9,10-29.7,4.3-52.6-9.9-79.9-17.7-1.4-.4-7.9-2.9-8.3-2.8-1.2.2-1.1.9-.4,2,1.1,1.8,4.1,3.4,5.1,5.2,2.1,3.9.7,6.9-3.9,7-.4,0-6.5-1.5-7-1.8-2.8-1.3-11.6-10.9-12.3-13.8-.5-2.2.7-3.6.6-5.4-.2-4.5-1.8-6.2-3-9.7-1.1-3.2-.5-7.2-4.6-8.2-3.5.7-7.3-.8-10.4-.8s-4.5.9-7.1.9c-6.6,0-13.3-2-20,.7-2.2,1.6-.3,3.6-.6,5.2-.4,2.3-1.4,3.6-1.4,6.5s1.8,9.9,3,13.6c-2.9,3.1-4,5.9-8.7,5s-6.4-4-7.5-8.4c-2.1-8.1,1.7-20.6-2.3-27.1-.6-1.1-2.2-1.3-2.5-2.3-.7-2.1-.9-9.6.9-11.2.4-.3,1.4-.3,2.1-.7.7-.5.6-1.6,1.5-1.9.7-.2,2.1.3,2.5,0,.4-.4,2.4-9.9,2.4-11.5,0-4.4-1-8.4,0-12.7.4-2,2.4-5.7,2.4-6.4,0-1.6-1.9-3.4-2.2-5-1-5.7,7.8-8.5,12.1-7.9.3,0,5.9,2.3,6.1,2.5,1.3,1.1,1,6,.6,7.8-.8,3.3-6.3,9.2-6.8,13.1-.2,1.2,1.3,2.4,1.4,3.9.3,3.2.4,8.9,0,12-.3,2.7-1.9,4.1-1.6,6.6h0Z"/>
  <path d="M785.6,274.2c6.7,6.6,5.6,10.3,7.7,18.2,3.2,12.5,6.3,24.9,10,37.1,2,6.8,2.6,15,4.7,21.6.9,2.7,2.6,4.1,3.4,6.2,2.2,5.8,8,22.8-4.8,19.1-2-.6-7.4-7.6-8.1-9.4-1-2.4,0-4.9-.6-7.4s-2.7-7.3-3.6-10.8c-2.4-9.2-5.4-17.1-8.2-26.1-1.1-3.5-4.2-21.9-8.4-21.9-1.5,3.9-5.7,9.5-6.6,13.4-.7,3.1.3,6.4-.2,9.3-.3,1.6-3.4,10.1-4.2,12.6-1.9,6-7,22.1-14.5,22.2-1.6,0-5.8-1.5-7.2-2.4-1-.7-5.1-5.7-6-7-7.3-10.4-11-24.7-17-36.3-1.7-3.3-3.9-6.6-5.5-10-3.7-.6-3,2.2-3.4,3.8-2.2,8.5,0,8.8-.4,15.6-1,13.8-2.7,28.8-3.3,43,0,2.3,1.2,4.3.8,7.1-1.1,8.7-11.7,6.8-13.4-2.4-1.1-5.9-3-20.5-2.3-26,1.5-11.4,4.4-21.6,4.7-33.7.2-10-.9-20.2,2.7-29.9,2-5.4,3.6-9.4,10.2-7.8,4.4,1,9.6,9.8,11.9,13.6,6.1,10.3,15.5,28.4,19.5,39.4.6,1.8.2,3.8,1.2,6,1.1,2.4,5.8,7.1,8.4,4.3,1-1.1,5.1-14,6-16.6,2.4-7,5.3-17.5,6.9-25,.4-1.7-.3-3.6.2-5.4s4-3.5,4.8-5.5c.7-1.7.3-3.5.8-4.8.4-1,3.3-6.8,3.7-7.3.8-1,4.6-.6,5.9-.3,1.9.5,2.9,2.2,4.1,3.4h0Z"/>
  <path d="M1337.1,278c2,2.5,1.1,4.8,1.7,6.7,1.4,4.3,5.1,4.6,2.6,11-1.8,4.6-6.3,10-10,13.1-5.8,4.8-12.9,8.4-18.7,13.2-.3.6,2.7,3.5,3,3.6,3.3.8,1.9,0,4.8,1.5,5.3,2.9,10,3.5,13.8,9.2,4.1,6.2,1.6,6.4.8,12-1.4,10.2-.6,10.9-8.9,18.2-11.8,10.3-34.8,16.8-50.1,12.1-2.2-.7-9.4-5.3-9.4-8,0-11.5,11.7-1.3,17.5-5.7-.2-4.9-4.3-8.7-4.8-13.6-.3-3.1,1.1-5.4.6-8.5-.9-5.4-5.5-7.7-3.3-14.8.7-2.4,2.5-3,3.3-4.7,2.4-5.8-.7-16,.2-22.9.8-6.9,4.1-11.2,1.2-19.5-.7-2-3.4-4.1-3.6-6s2.4-6.3,4-7.1c.9-.4,10.6-3.5,11.5-3.6,4.5-.6,6.1,1.3,9.6,1.7,8.3,1,16.8-1.7,25,3.7,1,.6,8.7,7.7,9.4,8.5h-.2ZM1326.9,286.7c-.3-.4-7.7-4.6-8.8-5.1-5.9-2.5-13.3-3.2-19.4-1.5l-.8,1.2c3,5.7-2.6,7.9-3.1,11.5s0,15.8.4,19.6c0,1.3.6,2.4.8,3.6,7.8-3.4,18-6.9,24.3-12.7.9-.9,6.5-7.5,6.8-8.3.8-1.8.8-6.8-.3-8.3h0ZM1321.2,352.4c.9-1.5.9-4,1.6-5.8-1.4-3.1-5.1-2.8-7.1-3.8-4.6-2.1-8.1-4.9-13.7-4.6-1.5,0-5.2.9-6.1,1.9-2.8,3.5,1.5,17.9-2.3,22,2.8-.5,5.5.8,8.1.6,4.9-.4,16.8-6.1,19.5-10.5h0v.2Z"/>
  <path d="M318.6,343.6c.1.2,3.3,3.3,3.5,3.5,9.6,6.3,24.8,7.7,35.5,11.3,12.7,4.4,26,9.6,39.3,11.7,4.4.7,24.3-2.8,21.7,5.8-1.7,5.6-12.6,6.7-17.7,7-15.9,1-24.5-1.6-38.7-6.8-6-2.2-11.6-3.6-17.5-5.6-4-1.3-12.8-5.8-16.3-6-5.7-.3-4.5,7-6.2,10.6-7.5,15.8-42.8,18.1-55.6,9-4.8-3.4-6.2-9.4-4.6-15,1.1-3.9,17.3-12.2,18.2-4.9.2,1.4-.9,2.7-.1,4,.7,1.1,6.3,4.2,7.6,4.4,11.9,1.6,25.2-2.6,20-16.8-3.3-9-7.9-16.8-10.5-26.9-3.1-11.8-4.5-22.6-6-34.6-.5-4.1-4.5-11.7-4.6-13.8,0-1.8,2.2-4.1,1.8-6.5,3.3-2.3,3.4-4.1,8.2-4,12.6.2,8.1,13.1,8.4,21.7.5,13.3,5.9,32.5,10.8,45,.8,2.1,1.8,5.2,3,7h-.2Z"/>
  <path d="M1795,307c.3.5,1.8.8,2.4,2,1,2,.2,4.5,1.2,6.8.5,1.1,2,2,2.5,3.1,2.1,4.4,2.3,8,7.4,10.1,2.6,1,7.7,2,10.8,2.8s5.4-1,6.4,3.2c1,4.4-2.3,4.7-6,5.5-4.5,1.1-9.1-.6-9.8,5.4-.5,4.6.8,4.2,1.9,6.9,3.1,7.2,8.2,13.6,12.3,20.4,2.3,8-7.6,17.9-13.7,9.7-4.8-6.3-5.1-11.3-8.1-17.4-1-2-3.7-4.2-4.5-6.7-1.5-4.8-.6-12.7-5.2-15.7-3.7-2.4-8.7-1-13.2-1.7-2.7-.5-5.4-2.2-8.1-2.3-1.1,0-6,.6-6.6,1-.5.4-.5,1.7-1,2.4-2.6,3.8-2.9,8-4.2,12.7-.3,1.1-1.8,1.7-2,2.8-.5,1.7,0,8.7-.3,10.8,0,.6-3,7.5-3.3,7.9-2.6,3-11.2,2.3-13.8-.3-1-1-3.4-6.5-3.2-8,.5-3.8,6.1-6.9,6.8-9.1,1.4-4.6.8-10.8,3.2-16.7.5-1.2,2.2-2.2,2.4-3.1.8-4.1-6.2-8.6-2.8-14.9.8-1.5,3.7-2.5,5.4-4.1,5.4-5.4,4.8-10,6.9-16.2,1.3-3.8,2.4-6.6,3.6-10.7,2.9-9.5,4.3-16.8,14.5-21.3,2.3,1.6,6.2,1.9,8,3.9,1.7,1.9,2.4,6.7,3.4,9.4.7,1.8,2.4,3.4,2.8,5.2,1.4,5.2.9,10.8,3.9,16.3h0ZM1777.9,304.2c-4.7-2.7-3.5,4.6-3.9,6.6-.6,3-4.4,5.7-3,10.2s10,4.8,13.7,3.6c1.8-.6,1.5-2.6,1.1-4s-4.3-10.6-5.2-12.3c-.3-.6-2.5-4-2.7-4.1h0Z"/>
  <path d="M498,359.5c1.8,3.3,11.3,14.9,11.7,17.5.7,5.4-5,15.8-10.8,12.3-6.8-4-8.5-15.2-11.9-21.6-1.3-2.5-4-5-5-7.8-1.1-3.3-.4-8.2-1.5-10.5s-8-4.2-10.5-4.6c-3.4-.6-18.4-1.5-20.5.6-1.5,1.4-3.2,11.1-3.9,13.6l-3.6.8c-.2,1.6,1.3,2,1.6,3.6.7,3.7-1.9,14.5-4.8,16.7-6.1,4.7-12.7,1.7-14.5-5.4-1.2-4.8,3.9-7.8,4.8-11.5,1.1-4.9,1.5-14,4.2-18.7.6-.9,2-1,2.3-1.9,1.1-3.6-6.3-7.8-5.2-12.3.9-3.7,7.9-6.6,10.6-10.9,7.4-12,6-31,16.5-40.1,4.3-3.7,8.9-3.3,13.1.5,3,2.7,1.8,4.8,2.8,7.5s3.8,6.5,4.2,8.5c1,4.9.8,10.7,2.8,15.6.8,2,3.3,3,4.1,4.6,1,2,.9,5.5,1.6,7.9,1.4,4.5,3.5,7.1,8,8.7,4.9,1.8,16.2,1.1,17.6,6.4,1.7,6.4-14.9,4.8-16.8,8.8-1.3,3.9,2.5,7.7,3.1,11.7h0ZM464,309c-.6-.3-2.5-.4-2.9,0s-2.8,6.7-3.1,7.7c-.3.9-1.7,6.4-1.7,6.8.7,5.7,12.7,8.4,14.6,4.5.9-1.9-5-17.9-7-18.9h.1Z"/>
  <path d="M1657.9,356.4c.2.2,4.9,3.8,5.3,3.9,4.8,1.4,10.4,2,13.5-2.6,1.3-1.9,4-9.5,4.7-12,3-10.7,3.5-31.4,1.5-42.5-.9-5-5-10.4-5-14.1s1.9-9.6,2.2-10c1.5-1.9,5.7-1.9,7.6-.6,1.2.9,8.2,14.8,8.3,16.5.2,2.4-1.3,3.1-1.4,4.5-.3,6.3,2.8,13.5,2.9,20.9,0,7.4-.4,24.7-1.6,31.8-.4,2.5-3.3,6.1-3.8,8.2-1,4.4,1.2,6.1-2.2,10.5-4.7,5.8-18.7,10.2-26,8.7-4.7-1-11.8-8.5-15.3-11.8-6.1-5.8-8.1-7-11.7-15.3-7.7-17.5-19.3-49.4-18.2-68.7.4-5.8,1.1-12.5,8.6-10.3,5.6,1.7,5.7,6.4,6.3,11.1,3,21,8.5,56,24.3,71.9h0Z"/>
  <path d="M930.1,274.8c4.7,6.9,2.7,13.9-6.5,13.3-3.5-.2-7.6-4-10.2-3.8-7,.4-18.5,8.4-25.8,10.2-3.5,2-17.1,16.5-18.2,20-.9,2.9,0,5.5-.5,8.2-.8,4.8-2.9,8.2-1.7,13.1,1.4,5.7,4.5,10.8,8.2,14.9.9,1.1.8,2.6,2.1,3.5.6.4,4.8,2,5.7,2.3,12.7,3.3,26-2,37.9,6.7,2,1.4,5.2,4.2,5.4,6.6.3,5.2-3.9,3.6-7,5-1.8.8-2.6,3.1-4.6,3.4-1.4.2-9.6-.7-11.8-.9-9-.8-14.6-1.8-22.7-6-19.8-10.2-29-19.2-28-42.9,0-2.3,1.6-5.8,1.3-7.9-.2-1.4-1.6-2.5-1.4-4.9,0-1.7,1.5-2.7,1.6-4,.8-6-.9-5.6,2.9-11.4,9.1-13.8,27.2-23.5,42.6-28.3,7.2-2.3,6.1-1.3,12.4-.6,1.8.2,4.5-.9,7.1-.6,3.2.4,7.4,4,11.3,4.2h0Z"/>
  <path d="M1921.2,291.9c-3,3.9-7,1.1-9.7,1-14.2-.5-30.5-.2-44.6,0-2.6,0-8.6-1.6-10.4.7-.3.4-2.6,9.8-2.5,10.6,0,1.8,1.8,3.6,2,5.1.6,4.3-1.2,10.8.2,16.5.6,2.5,2.8,4.4,3.2,7.2.6,4.7-.9,9.5-.8,13.6,0,9.2,5.8,15,4.8,24.7-.8,8-13.8,7.9-15.6,1.2-1.6-5.9-1.9-11.1-2.3-17-.4-5.1-2.4-9.4-2.9-14.5-1.1-11,1.3-23.6,0-34.3-.2-1.9-2.4-10-3.8-10.7-7.1-3.3-19.6,4.4-27.5,2.4-2.4-2.8-3.8-4.5-3.8-8.4,0-8.1,7.4-5,12.4-5.9,17.4-3.3,30-7.1,48.6-6.5,6,.2,12.9,1.8,19.1,1.7s12.2-1.6,18.4-1.7c2.2,0,12.3.7,13.6,1.6,3.8,2.7,4.5,8.9,1.7,12.6h0Z"/>
  <path d="M1149.2,274c1.8,1.5.7,9.4,1,12.1.8,5.8,2.2,6.3,1.4,13.4-1.6,13.1-3.1,26.8-4.5,40.1-.6,5.5.6,12.3,0,16.7-.2,1.5-3.2,1.2-.9,4.6,1.8,2.7,16.7-.9,20.4-1.1,9.5-.6,19.3.6,28.7.8,4.9.1,10.5-2.2,14.8,1.2,7.1,5.7-3.3,8.4-5,13.8-1.4.8-7.4-2.1-9.9-2.2-13.4-.4-24,3.1-36.5,3.9-3.2.2-6.5-.8-8.8-.7-1.3,0-3.3,1.9-5.6,2.2-4.2.6-17.7.3-19.8-4-.6-1.2-1.5-6.2-1.3-7.5,0-.6,4.5-5.6,5.2-7.6.5-1.4-.6-3-.3-4.9.6-3.5,5.1-9.5,5.5-15.3.4-5.7-2.1-5.3.4-13.2,2.8-9,1.6-5.2,1.3-14,0-4.2,0-12.5,0-16.6,0-1.6,1.3-3.6,1.3-4.9s-2.1-2.6-2.6-4.5c-2.9-9.2,10.9-16.2,15.2-12.4h0Z"/>
  <path d="M1708.1,274c3.8-2.4,8.5.4,11.3,3,.6,5.3,1.8,10.4,2.7,15.6,3.4,19.7,4,40.7,7.6,61,1.3,7.2,1.3,13.8-1.3,20.8-2.2,6.2-14.6,3.6-15.7-3-1.9-12,.7-29.8-.4-42.8-.6-8.1-2-17.4-2.9-25.6-.7-6.7-4-18.7-3.2-24.7,0-1.1,1-3.6,1.9-4.2h0Z"/>
  <path d="M839.2,371.5c0,.2-3.2,3.3-3.4,3.4-4,1-10.1-2.5-11.2-6.9-1-4.1,0-6.7-.2-10.1-.9-23.8-1.7-48-5.6-71-.5-2.7-1.5-7.9-1.7-10.3-.6-9.5,8.5-9.6,13.3-3.7,2.1,2.6.7,5.4,1.2,8.4.7,4.8.8,10.6,1.5,14.4.4,1.8,2.2,2.4,2.4,4,1.4,14.7,2.6,29.1,4.5,44,1.3,9.4,3.8,18.9-.9,27.8h.1Z"/>
  <path d="M1029.3,333.3c-1.4-1.2-3.9-9.1-3.4-11.2,0-.4,4.6-3.4,5.4-3.6,3-.6,6.1,1.8,9.5,2,15.8.6,26.9-.3,42.8,1.9,4.8.7,11.1-.8,15.9,0,2.9.5,10,4.8,12,7.2,5.7,6.8,3,16.3-7.1,15.1-5.6-.7-3.9-4-6.8-5.9-3.9-2.6-7.9-.5-11.5-.6-2.3,0-4.2-1.9-6.4-2.2-3.9-.6-7,.9-10.3.8-2.8,0-6.4-1.3-9.6-1.2-5.8.2-9.8,2.4-16.5,1.7-2.6-.3-12.3-2.5-14-3.9h0Z"/>
  <path d="M332.9,332.5c-4-3.1-3.2-8.9-2.5-13.2,1.7-2.8,23.2.5,27.3.7,14.4.6,33.6-1.7,47.5,1.9,2.6.7,6.1,2.1,7.9,4.1,3.6,3.9,7.5,15.1.3,16.9-10.1,2.5-9.9-4.8-16.9-6.6-1.2-.3-13.2-2.1-13.9-1.9-8.1,1.4-8.8,0-16,0s-6.2,1.8-8.7,2c-3.5.3-12.2-.1-16-.3-2.4-.1-2.6-1.7-4.2-2.3s-3.2,0-4.8-1.2h0Z"/>
  <path d="M1116.2,287.8c2.3,2.7,5.9,6.4,1.2,9.4-6.1,3.9-13.1-1.8-18.7-2-6.1-.2-15.9,1.1-22.3,1.7-6.8.7-13.2,2.4-20.2,3.7-8.4,1.6-17.5,1.9-25.3,5.5-6.2-3.1-10.2-9.4-5.4-15.7,3.6.1,8.7-2.9,11.8-3.1,1.1,0,2.2.7,3.1.6,12.6-1.2,22.3-4,35.1-4.7,10.6-.6,27.3-3.5,36.7.7,2,.9,2.5,2.4,3.7,3.9h.3Z"/>
  <path d="M418.3,285.4c3.2,3.3,6.5,7.3,1.6,10.7-6.6,4.6-9.4-1.5-15.2-2.3-4.6-.6-15.4.6-20,1.3-11.7,1.8-24.6,2.7-36.3,5.2-6,1.2-14.2,8.6-18.9,1.6-8.9-13.1,4.4-12.7,13.2-15.9,21.4.3,46.9-7.2,67.8-3.6,4.6.8,4.1-.6,7.7,3h0Z"/>
  <path d="M674.5,327.1l-7.9,2.8,5.6.8.4,2c-1.1,1.7-20.5,6.3-23.8,5.4l-7.7-6.7c.3-5.1,5.1-3,8.4-3.6,4.8-.8,11.8-4.1,16-4.7,3.5-.5,10.5-1.2,9.1,3.9h0ZM664.2,331.9c-.2-5.4-9.9-2-12,.8,4.6.9,7.6.5,12-.8Z"/>
  <path class="st0" d="M1206.3,100.4c3.5-6,7.5-12,11-18.1,2.2-3.8,2.7-10.9,7.8-10.1.2,16.7,2.6,34.6-1,51.2-.5,2.4-2.3,3.5-2.2,6.6,0,3.5,2.9,10.4,3.3,15.1.9,12,.7,23.9,1.6,35.8.6,8.5,2.6,17,1.6,25.9-2.5.1-5.1-.2-7.6,0-9.6.7-19.4-1.3-29.5-.8-13.4.7-32.1,6.4-44.6,4.7-4.1-.5-7.5-3.2-12-3.2-11.6.1-22.1,6.2-35.7,3.9-3.4-.6-6-3.8-8.9-3.8s-7.7,2.7-11.3,3.1c-4.9.6-10.6.3-15.7,1-16.1,2.2-31.8,6-48.3,4.7-.2-13.7,4.5-26.8,8.5-39.7,4.8-15.4,6.3-24.4,9.2-40.2,3.1-16.7,6.5-33.3,9.3-50,1.8-.3,2.1,1.2,2.8,2.4,3.6,5.7,8.3,18.7,11.1,25.5,2.5,6.1,8.2,17.5,9.6,23.1.5,2.1-.5,3.6.5,5.8s3.6,3.5,5,5.4c4.1,5.7,4.6,15.6,7.8,21.7,1.6,3,6.5,4.4,9.7,3.6,2.1-.7,7.5-17.7,9.2-21.1,7.3-15.4,13.7-31.1,21.8-45.9,5.2-9.4,8.9-20.4,12.6-30.4,1.1-3.1,2.8-10.3,5.8-5.7,4.3,6.6,14.5,31.1,15.6,38.6.3,2-.8,3.3-.4,5.8.6,3.5,4.8,9.1,6.3,13.7,2.4,7.7,2.8,29.9,14.5,27.7,4.1-.8,8.3-15.3,10.6-19.7,6.4-12.1,15-24.5,22-36.6h0Z"/>
  <path class="st1" d="M1370.3,320.6c-1-1.7,1.6-11.3,2.5-13.5.4-1.1,1.9-4.6,3.3-4.6,1.5.6,5.8,7.9,6.3,9.6.3,1,2.1,9.3,2,9.8-.8,2.9-11.9.9-14.1-1.3h0Z"/>
  <path class="st1" d="M1596.7,299.7c1.8,1.9,6.4,8.1,6.6,10.5,0,1.3-1.5,3.1-1.5,5.4,0,3.6,1.9,8.3,1.7,11.9-.2,3.1-6.6,17.9-8.8,20.5-4.3,2.1-9.3,13-14.6,9.4-2.3-8.7-6.3-17.1-5.7-26.3-3-5.1-5.5-7.7-11.9-6.4-2.2.4-6.6,7.9-6.8,10-.4,3.6,3.5,11.7,4,15.9.6,5.7.2,11.4-6.8,10-.4,0-6-2.9-6.4-3.1-5.8-3.9-3.8-7.9-5.6-12-.5-1.3-3.1-2.3-3.5-3.8-.3-1.2.7-2.5.6-3.7-.5-4.3-1.8-7.2-1.5-12.1.4-7.3,5.4-22.4,10.8-27.4,3.8-3.5,6.1,0,9.8-1.3s3.9-7.9,8.4-9.1c11.8.8,22.5,2.6,31.1,11.5h.1Z"/>
  <path class="st1" d="M1326.9,286.7c1.1,1.5,1,6.4.3,8.3-.3.8-5.9,7.4-6.8,8.3-6.3,5.9-16.5,9.3-24.3,12.7-.2-1.2-.7-2.3-.8-3.6-.4-3.9-.8-16.3-.4-19.6s6-5.8,3.1-11.5l.8-1.2c6.1-1.7,13.5-1,19.4,1.5,1.1.5,8.5,4.7,8.8,5.1h0Z"/>
  <path class="st1" d="M1321.2,352.4c-2.7,4.4-14.5,10.1-19.5,10.5-2.6.2-5.4-1.2-8.1-.6,3.8-4.1-.5-18.5,2.3-22,.8-1.1,4.6-1.8,6.1-1.9,5.6-.3,9.2,2.5,13.7,4.6,2,.9,5.7.7,7.1,3.8-.7,1.7-.7,4.3-1.6,5.8h0v-.2Z"/>
  <path class="st1" d="M1777.9,304.2c.2.1,2.3,3.5,2.7,4.1.9,1.7,4.9,10.8,5.2,12.3s.6,3.5-1.1,4c-3.7,1.2-12.3,1-13.7-3.6s2.5-7.2,3-10.2c.4-2-.9-9.3,3.9-6.6h0Z"/>
  <path class="st1" d="M464,309c1.9,1.1,7.9,17,7,18.9-1.8,3.8-13.9,1.1-14.6-4.5,0-.3,1.4-5.9,1.7-6.8.3-.9,2.7-7.4,3.1-7.7.4-.4,2.3-.3,2.9,0h-.1Z"/>
  <path class="st1" d="M664.2,331.9c-4.4,1.3-7.4,1.7-12,.8,2.1-2.8,11.7-6.2,12-.8Z"/>
  <path class="st0" d="M1008.3,216.7"/>
  <g>
    <path d="M894,499.5v-44.9h18.8c2,0,3.9.4,5.6,1.3,1.7.8,3.2,1.9,4.4,3.3s2.2,2.9,2.9,4.7c.7,1.7,1,3.5,1,5.3s-.3,3.7-1,5.5c-.7,1.7-1.6,3.3-2.7,4.7-1.2,1.4-2.6,2.5-4.3,3.3s-3.5,1.2-5.5,1.2h-12.1v15.6h-7.1ZM901.1,477.6h11.7c1,0,1.9-.2,2.7-.6s1.5-1,2.1-1.8,1.1-1.6,1.4-2.7c.3-1,.5-2.1.5-3.3s-.2-2.4-.6-3.4c-.4-1-.9-1.9-1.6-2.6-.7-.7-1.4-1.3-2.3-1.7-.9-.4-1.8-.6-2.7-.6h-11.3v16.7h0Z"/>
    <path d="M983.7,493.4c2.4,0,4.3-.5,5.9-1.4,1.6-.9,2.8-2.1,3.8-3.6.9-1.5,1.6-3.2,2-5.1s.6-3.9.6-5.9v-22.8h7.1v22.8c0,3.1-.4,6-1.1,8.7-.7,2.7-1.9,5.1-3.4,7.1-1.6,2-3.6,3.7-6,4.8-2.5,1.2-5.4,1.8-8.9,1.8s-6.6-.6-9.1-1.9c-2.5-1.2-4.5-2.9-6-5s-2.6-4.5-3.3-7.2-1-5.5-1-8.4v-22.8h7.1v22.8c0,2.1.2,4.1.6,6,.4,1.9,1.1,3.6,2,5.1s2.2,2.7,3.8,3.6,3.5,1.4,5.8,1.4h.1Z"/>
    <path d="M1041,494l27.2-33.2h-26.6v-6.3h34.9v5.4l-26.6,33.2h26.7v6.3h-35.6v-5.4Z"/>
    <path d="M1112.4,494l27.2-33.2h-26.6v-6.3h34.9v5.4l-26.6,33.2h26.7v6.3h-35.6v-5.4Z"/>
    <path d="M1186.8,499.5v-44.9h7.1v38.6h24.1v6.3h-31.2Z"/>
    <path d="M1286.1,493.2v6.3h-30.8v-44.9h30.2v6.3h-23.1v12.8h20v5.9h-20v13.7h23.7Z"/>
  </g>
</svg>