<?xml version="1.0" encoding="UTF-8"?>
<svg xmlns="http://www.w3.org/2000/svg" width="899.21" height="998.95" xmlns:xlink="http://www.w3.org/1999/xlink" viewBox="0 0 899.21 998.95">
  <defs>
    <linearGradient id="linear-gradient" x1="435.73" y1="224.31" x2="442.94" y2="905.71" gradientUnits="userSpaceOnUse">
      <stop offset="0" stop-color="#202020"/>
      <stop offset=".6" stop-color="#0d2e3f"/>
      <stop offset=".68" stop-color="#173449"/>
      <stop offset=".84" stop-color="#344566"/>
      <stop offset="1" stop-color="#5b5d8d"/>
    </linearGradient>
    <linearGradient id="linear-gradient-2" x1="436.66" y1="-188.34" x2="442.92" y2="705.55" gradientUnits="userSpaceOnUse">
      <stop offset="0" stop-color="#000"/>
      <stop offset=".18" stop-color="#0f0f0f"/>
      <stop offset=".47" stop-color="#222"/>
      <stop offset=".67" stop-color="#292929"/>
      <stop offset=".73" stop-color="#2b2b2c"/>
      <stop offset=".78" stop-color="#313238"/>
      <stop offset=".79" stop-color="#32343a"/>
      <stop offset=".88" stop-color="#414758"/>
      <stop offset=".93" stop-color="#545f7e"/>
      <stop offset="1" stop-color="#7387bc"/>
    </linearGradient>
    <filter id="outer-glow-1" x="349.43" y="36.3" width="200" height="214" filterUnits="userSpaceOnUse">
      <feOffset dx="0" dy="0"/>
      <feGaussianBlur result="blur" stdDeviation="15"/>
      <feFlood flood-color="#fff" flood-opacity=".5"/>
      <feComposite in2="blur" operator="in"/>
      <feComposite in="SourceGraphic"/>
    </filter>
    <filter id="outer-glow-2" x="52.43" y="74.3" width="799" height="421" filterUnits="userSpaceOnUse">
      <feOffset dx="0" dy="0"/>
      <feGaussianBlur result="blur-2" stdDeviation="9"/>
      <feFlood flood-color="#fff" flood-opacity=".27"/>
      <feComposite in2="blur-2" operator="in"/>
      <feComposite in="SourceGraphic"/>
    </filter>
  </defs>
  <g id="Window">
    <g id="sky">
      <rect x="209.48" y="273.7" width="460.41" height="649.61" fill="url(#linear-gradient)"/>
      <path d="M209.48,243.84c1.87-123.62,106.14-222.1,230.21-222.1s228.34,98.48,230.21,222.1H209.48Z" fill="url(#linear-gradient-2)"/>
      <path id="Moon" d="M432.47,81.87c-11.87,11.67-19.25,27.91-19.25,45.88,0,35.53,28.8,64.34,64.34,64.34,9.52,0,18.55-2.09,26.68-5.8-11.61,11.41-27.52,18.46-45.09,18.46-35.53,0-64.34-28.8-64.34-64.34,0-26.01,15.44-48.4,37.65-58.54Z" fill="#fff" filter="url(#outer-glow-1)"/>
    </g>
    <g id="Left-Window">
      <polygon points="35 736.6 182.11 710.48 182.11 464.91 35 452.2 35 736.6" fill="none"/>
      <polygon points="182.11 450.78 182.11 263.95 35 206.02 35 438.07 182.11 450.78" fill="none"/>
      <polygon points="35 750.73 35 978.63 182.11 933.21 182.11 724.62 35 750.73" fill="none"/>
      <path d="M55.13,757.99c.58,1.94,64.25,90.42,112.81,135.08,0,0,40.16,45.21-36.32-44.93l-76.49-90.14Z" fill="#202020"/>
      <rect x="0" y="192.08" width="10.6" height="806.87" rx="3" ry="3" fill="#202020"/>
      <path d="M191.83,256.64c0-4.23-2.54-8.04-6.44-9.67L30.93,184.97c-6.9-2.88-14.51,2.19-14.51,9.67v793.83c0,7.04,6.81,12.08,13.54,10.02l158.17-51.46c4.4-1.35,7.41-5.41,7.41-10.02l-3.71-680.37ZM35,452.2l120.6,11.12v250.42l-120.6,22.86v-284.4ZM172.8,933.21l-137.8,45.42v-227.9l120.6-22.86v199.58c0,1.93,1.56,3.49,3.49,3.49s3.49-1.56,3.49-3.49v-200.91l10.21-1.93v208.6ZM172.8,710.48l-10.21,1.93v-248.45l10.21.94v245.58ZM172.8,450.78l-10.21-.94v-180.61c0-1.93-1.56-3.49-3.49-3.49s-3.49,1.56-3.49,3.49v179.97l-120.6-11.12v-232.05l137.8,57.94v186.82Z" fill="#202020"/>
      <path d="M87.65,748.49c.45,1.43,50.2,66.59,88.14,99.48,0,0,31.38,33.29-28.38-33.09l-59.76-66.39Z" fill="#202020"/>
      <path d="M110.91,748.49c.34,1.08,38.08,50.18,66.87,74.96,0,0,23.81,25.09-21.53-24.93l-45.34-50.02Z" fill="#202020"/>
      <path d="M122.54,744.85c.31.92,34.24,43.02,60.12,64.26,0,0,21.41,21.51-19.36-21.38l-40.76-42.88Z" fill="#202020"/>
      <path d="M103.9,471.4c.33,1.45,41.57,68.89,73.97,103.58,0,0,26.45,34.76-23.76-34.41l-50.21-69.17Z" fill="#202020"/>
      <path d="M118,467.37c.3,1.24,37.54,59.17,66.74,88.98,0,0,23.86,29.87-21.44-29.56l-45.3-59.43Z" fill="#202020"/>
    </g>
    <g id="Left-Window-2" data-name="Left-Window">
      <polygon points="845.28 736.6 698.17 710.48 698.17 464.91 845.28 452.2 845.28 736.6" fill="none"/>
      <polygon points="698.17 450.78 698.17 263.95 845.28 206.02 845.28 438.07 698.17 450.78" fill="none"/>
      <polygon points="845.28 750.73 845.28 978.63 698.17 933.21 698.17 724.62 845.28 750.73" fill="none"/>
      <path d="M732.88,263.74c.38,2.23,42.42,103.66,74.49,154.86,0,0,26.52,51.83-23.98-51.51l-50.5-103.35Z" fill="#202020"/>
      <g>
        <path d="M724.68,927.46c0,1.93-1.56,3.49-3.49,3.49h0c-1.93,0-3.49-1.56-3.49-3.49v-200.91l-10.21-1.93v208.6l137.8,45.42v-227.9l-120.6-22.86v199.58Z" fill="none"/>
        <polygon points="717.69 463.97 707.49 464.91 707.49 710.48 717.69 712.42 717.69 463.97" fill="none"/>
        <path d="M707.49,450.78l10.21-.94v-180.61c0-1.93,1.56-3.49,3.49-3.49h0c1.93,0,3.49,1.56,3.49,3.49v179.97l120.6-11.12v-232.05l-137.8,57.94v186.82Z" fill="none"/>
        <polygon points="724.68 713.74 845.28 736.6 845.28 452.2 724.68 463.32 724.68 713.74" fill="none"/>
        <path d="M849.36,184.97l-154.46,62c-3.9,1.63-6.44,5.44-6.44,9.67l-3.71,680.37c0,4.61,3.01,8.67,7.41,10.02l158.17,51.46c6.73,2.06,13.54-2.98,13.54-10.02V194.64c0-7.48-7.61-12.55-14.51-9.67ZM707.49,464.91l10.21-.94v248.45l-10.21-1.93v-245.58ZM845.28,978.63l-137.8-45.42v-208.6l10.21,1.93v200.91c0,1.93,1.56,3.49,3.49,3.49h0c1.93,0,3.49-1.56,3.49-3.49v-199.58l120.6,22.86v227.9ZM845.28,736.6l-120.6-22.86v-250.42l120.6-11.12v284.4ZM845.28,438.07l-120.6,11.12v-179.97c0-1.93-1.56-3.49-3.49-3.49h0c-1.93,0-3.49,1.56-3.49,3.49v180.61l-10.21.94v-186.82l137.8-57.94v232.05Z" fill="#202020"/>
      </g>
      <path d="M756.99,252.02c.34,1.76,37.21,82.06,65.34,122.58,0,0,23.26,41.03-21.04-40.78l-44.3-81.8Z" fill="#202020"/>
      <path d="M774.23,252.02c.25,1.33,28.23,61.83,49.57,92.37,0,0,17.65,30.92-15.96-30.73l-33.61-61.64Z" fill="#202020"/>
      <path d="M898.19,577.61c-1.16-3.1-5.03-9.29-9.68-10.06-2.56-.43-5.81-.38-8.23-.26V195.57c0-1.93-1.56-3.49-3.49-3.49h-3.61c-1.93,0-3.49,1.56-3.49,3.49v799.89c0,1.93,1.56,3.49,3.49,3.49h3.61c1.93,0,3.49-1.56,3.49-3.49v-422.86c1.1-.04,2.38-.06,3.71-.02,3.71.13,3.35.9,5.03,1.94,1.68,1.03,2.97,4,3.61,5.29.65,1.29-.13,5.68-1.29,7.7-1.16,2.02-2.58,6.24-4.26,9.59-1.68,3.35-.9,7.74-1.03,9.55-.13,1.81,3.23,5.55,4.39,5.68,1.16.13,1.03-1.68,1.29-2.45.26-.77-.52-2.84-.52-2.84,0-1.55,1.55-5.81,2.32-8.69s3.1-6.4,4.64-8.73c1.55-2.32,1.16-8.9,0-12Z" fill="#202020"/>
    </g>
    <g>
      <path d="M693.1,249.66h-.56C690.54,111.44,577.89,0,439.2,0s-251.34,111.44-253.33,249.66h-.56v697.37h507.8V249.66ZM677.17,932.73H200.32V263.95h476.85v668.77ZM201.76,249.66c1.96-129.47,107.5-233.83,237.44-233.83s235.48,104.36,237.44,233.83H201.76Z" fill="#202020"/>
      <polygon points="720.19 953.08 161.88 953.08 83.83 978.63 795.55 978.63 720.19 953.08" fill="#202020"/>
    </g>
    <g id="stars" filter="url(#outer-glow-2)">
      <ellipse cx="327.75" cy="106.5" rx="4.26" ry="4.41" fill="#fff"/>
      <ellipse cx="291.44" cy="201.02" rx="3.29" ry="3.41" fill="#fff"/>
      <ellipse cx="250.15" cy="167" rx="3.96" ry="4.11" fill="#fff"/>
      <ellipse cx="610.55" cy="125.72" rx="5" ry="5.18" fill="#fff"/>
      <ellipse cx="568.4" cy="194.39" rx="3.1" ry="3.21" fill="#fff"/>
      <ellipse cx="636.77" cy="187.71" rx="3.35" ry="3.47" fill="#fff"/>
      <ellipse cx="388.39" cy="302.04" rx="4" ry="4.15" fill="#fff"/>
      <ellipse cx="407.81" cy="324.69" rx="2.62" ry="2.72" fill="#fff"/>
      <ellipse cx="512.08" cy="271.66" rx="1.74" ry="1.81" fill="#fff"/>
      <ellipse cx="529.72" cy="309.22" rx="3.13" ry="3.24" fill="#fff"/>
      <ellipse cx="636.77" cy="401.76" rx="3.35" ry="3.47" fill="#fff"/>
      <ellipse cx="650.35" cy="465.23" rx="2.22" ry="2.3" fill="#fff"/>
      <ellipse cx="274.09" cy="462.04" rx="5.29" ry="5.49" fill="#fff"/>
      <ellipse cx="81.87" cy="273.7" rx="1.97" ry="2.04" fill="#fff"/>
      <ellipse cx="114.46" cy="305.83" rx="3.54" ry="3.68" fill="#fff"/>
      <ellipse cx="88.89" cy="365.8" rx="5.05" ry="5.24" fill="#fff"/>
      <ellipse cx="819.19" cy="238.31" rx="4.87" ry="5.05" fill="#fff"/>
      <ellipse cx="730.76" cy="321.01" rx="2.11" ry="2.19" fill="#fff"/>
    </g>
  </g>
  <g id="star4">
    <path id="star4-2" data-name="star4" d="M631.09,750.77v.79c-5.43.06-8.21,3.27-8.47,8.78h-.77c-.22-5.53-3.07-8.67-8.47-8.78v-.79c3.24-.58,6.2-1.04,7.57-4.53.59-1.5.51-3.17,1.28-4.51.86,1.49.78,3.39,1.54,5.05,1.41,3.07,4.38,3.44,7.31,4Z" fill="#fff"/>
  </g>
  <g id="star3">
    <path id="star3-2" data-name="star3" d="M638.92,293.83v1.05c-7.17.08-10.84,4.32-11.18,11.59h-1.01c-.29-7.3-4.06-11.45-11.18-11.59v-1.05c4.28-.77,8.18-1.37,9.99-5.98.77-1.97.67-4.19,1.7-5.96,1.14,1.97,1.03,4.48,2.03,6.66,1.86,4.06,5.79,4.55,9.65,5.27Z" fill="#fff"/>
  </g>
  <g id="star2">
    <path id="star2-2" data-name="star2" d="M533.7,419.12v1.05c-7.17.08-10.84,4.32-11.18,11.59h-1.01c-.29-7.3-4.06-11.45-11.18-11.59v-1.05c4.28-.77,8.18-1.37,9.99-5.98.77-1.97.67-4.19,1.7-5.96,1.14,1.97,1.03,4.48,2.03,6.66,1.86,4.06,5.79,4.55,9.65,5.27Z" fill="#fff"/>
  </g>
  <g id="star1">
    <path id="star1-2" data-name="star1" d="M252.79,320.82v1.05c-7.17.08-10.84,4.32-11.18,11.59h-1.01c-.29-7.3-4.06-11.45-11.18-11.59v-1.05c4.28-.77,8.18-1.37,9.99-5.98.77-1.97.67-4.19,1.7-5.96,1.14,1.97,1.03,4.48,2.03,6.66,1.86,4.06,5.79,4.55,9.65,5.27Z" fill="#fff"/>
  </g>
  <g id="Kitty-tail">
    <path d="M415.65,877.43s16.58-122.53,18.13-132.34,7.1-28.13,14.77-34.32c7.68-6.19,17.74-13.93,26.77-14.97,9.03-1.03,25.48-1.03,32.1,1.81,6.61,2.84,12.29,8.26,14.1,11.1,0,0,4.39,10.58,4.13,15.74s-4.64,20.9-7.74,24c-3.1,3.1-7.03,5.94-10.48,6.71-3.45.77-8.1,1.29-10.94-1.29s-3.61-6.19-2.58-8.52,5.42-4.39,8-7.94,2.52-4.58,2.52-4.58c0,0-9.61-7.55-9.81-8.26s-7.23,0-9.94,1.94-7.42,7.55-10.26,12.77c-2.84,5.23-4.52,8.84-4.84,10.19s-3.29,68.71-2.32,72.77-12.88,52.08-12.88,52.08l-38.73,3.1Z" fill="#202020"/>
  </g>
  <g id="Kitty-Body">
    <path d="M336.05,940.69s-.29-15.87,0-16.83,1.06-8.03.77-8.52-.65-1.94-.42-2.32,1.29-1.06,1.39-1.45.29-.68,0-1.35-.08-7.45.15-9.39.52-3.48,2.46-5.9,6.19-6.1,6.29-6.87.48-1.94,0-2.61-.48-1.84-.19-2.23,2.13-1.55,2.23-2.23c0,0,.77-2.9,0-4.74s-.87-10.06-.19-12.68,1.06-5.32,1.06-5.32c0,0,1.16-7.74.58-8.61s-5.52-17.71-6.1-19.55-.29-22.35.39-26.03,2.13-6.87,2.71-7.35,2.32-.97,2.32-.97c0,0,1.74.48,3.77,1.74s13.35,12.68,14.61,14.23,11.9,11.81,13.16,13.06,6.77,5.13,8.03,5.71,3.19.77,3.68.58,3.39-.68,3.87-.68,3.87.87,4.45,1.26,1.84.97,2.32,1.06,5.52.19,6.1.19,3.29.48,4.26.97,9.77-.29,11.81-.29,6.97-.1,7.55-.1,4.45,1.06,5.71,1.06,7.06.19,9,.48,12.87-1.55,15-1.84,10.06-2.52,10.06-2.52l2.32-.58s1.16,1.65,1.45,1.74,4.16-3.87,5.13-4.45,4.16-2.03,4.84-2.52,16.84-18.39,18.77-20.13c1.94-1.74,7.74-6.97,8.9-7.06s3.58-1.35,4.16-1.35,2.81.68,3.48,1.26,3.68,4.84,4.35,10.35.97,21.29.68,22.45-5.32,17.13-5.71,18.1-.58,10.74-.77,11.23-.77,2.13-.68,2.81.77,15.19.68,16.06-.39,11.81-.39,11.81c0,0,3.48,4.45,4.64,6.29s3.19,7.26,3.97,11.13,1.35,12.19,1.35,13.74,1.45,3.39,1.94,4.26.87,14.51.87,14.51l-196.83.39Z" fill="#202020"/>
    <path d="M553.3,935.15s-1.55-35.42,14.32-41.22c15.87-5.81,30.97-4.64,35.61-2.32s8.52,7.74,9.68,10.84c1.16,3.1,3.48,8.52,2.32,14.32s-5.03,14.32-8.9,16.64c-3.87,2.32-53.03,1.74-53.03,1.74Z" fill="#202020"/>
    <path d="M323.46,935.15s1.55-35.42-14.32-41.22c-15.87-5.81-30.97-4.64-35.61-2.32s-8.52,7.74-9.68,10.84c-1.16,3.1-3.48,8.52-2.32,14.32s5.03,14.32,8.9,16.64c3.87,2.32,53.03,1.74,53.03,1.74Z" fill="#202020"/>
    <g id="Kitty-Eyes">
      <g id="Left-eye">
        <ellipse cx="470.65" cy="907.26" rx="15.19" ry="16.05" fill="#fff"/>
        <ellipse cx="470.65" cy="906.67" rx="13.02" ry="13.75" fill="#202020"/>
        <path d="M476.92,901.6s-2.58.97-2.9,1.55l.66,1.26s.95-.87,1.6-1.84l.65-.97Z" fill="#fff"/>
        <circle cx="477.59" cy="901.16" r=".84" fill="#fff"/>
        <path d="M472.95,900.25v.22c-1.57.02-2.37.91-2.44,2.44h-.22c-.06-1.54-.89-2.41-2.44-2.44v-.22c.94-.16,1.79-.29,2.18-1.26.17-.42.15-.88.37-1.26.25.42.23.94.44,1.4.41.85,1.26.96,2.11,1.11Z" fill="#fff"/>
      </g>
      <g id="Right-eye">
        <ellipse cx="397.41" cy="907.26" rx="15.19" ry="16.05" fill="#fff"/>
        <ellipse cx="397.41" cy="906.67" rx="13.02" ry="13.75" fill="#202020"/>
        <path d="M403.68,901.6s-2.58.97-2.9,1.55l.66,1.26s.95-.87,1.6-1.84l.65-.97Z" fill="#fff"/>
        <circle cx="404.35" cy="901.16" r=".84" fill="#fff"/>
      </g>
      <path d="M399.96,900.43v.22c-1.57.02-2.37.91-2.44,2.44h-.22c-.06-1.54-.89-2.41-2.44-2.44v-.22c.94-.16,1.79-.29,2.18-1.26.17-.42.15-.88.37-1.26.25.42.23.94.44,1.4.41.85,1.26.96,2.11,1.11Z" fill="#fff"/>
    </g>
  </g>
</svg>