<?xml version="1.0" encoding="UTF-8"?>
<svg id="Layer_2" data-name="Layer 2" xmlns="http://www.w3.org/2000/svg" width="155.29" height="72.83" viewBox="0 0 155.29 72.83">
  <g id="kitty">
    <g id="Layer_4" data-name="Layer 4">
      <path d="M80.45,49.09c-1.62,15.12,20.72,24.92,27.27,9.51.81-1.9.67-5.76,2.66-6.37,5.21-1.61,1.08,8.68-.49,10.98-7.81,11.37-25.07,8.87-30.52-3.13-2.47,3.57-3.87,6.78-7.65,9.29-8.99,5.97-20.98,4.28-26.31-5.49-1.29-2.36-3.67-9.66,1.38-7.14.59.3,2.59,5.66,3.94,7.26,10.06,11.91,27.14-.08,25.64-13.77-5.03-1.9-12.04-5.77-11.78-12.03s16.99-6.71,21.5-5.29c9.18,2.89.26,14.64-5.62,16.19Z"/>
      <path d="M54.47,22.6c-2.97,3.09-6.77-3.53-8.48-5.11-7.63-7.05-18.14-7.66-26.12-.86-2.82,2.4-5.97,9.1-10.02,6.68-5.17-3.09,3.28-12.32,6.08-14.63C25.72.62,40.95,1.65,49.76,10.64c2.11,2.16,7.46,9.11,4.72,11.96Z"/>
      <path d="M143.76,19.38c-2.97,3.09-6.77-3.53-8.48-5.11-7.63-7.05-18.14-7.66-26.12-.86-2.82,2.4-5.97,9.1-10.02,6.68-5.17-3.09,3.28-12.32,6.08-14.63,9.78-8.06,25.01-7.03,33.81,1.96,2.11,2.16,7.46,9.11,4.72,11.96Z"/>
      <g>
        <path d="M28.82,46.45c-5.17-4.34-10.84-7.9-17.58-9.31-2.14-.45-7.33-.07-8.48-1.54-2.07-2.65,2-2.75,3.75-2.72,6.27.14,12.59,2.53,17.94,5.7,1.29.77,5.77,3.77,6.37,4.81"/>
        <path d="M28.01,50.35c.8,5.72-4.49,1.93-7.73,1.26-3.97-.82-8.66-.52-12.62.29-1.56.32-7.46,3.38-7.66.32-.18-2.62,5.92-3.78,8.02-4.18,6.93-1.31,13.53-.53,19.99,2.32"/>
        <path d="M27.19,62.41c-.38.69-10.67,3.24-12.92,4.3-1.79.85-8.34,5.54-9.16,5.42-6.21-.88,5.4-7.78,6.88-8.51,2.4-1.2,10.7-4.25,13.07-4.05"/>
      </g>
      <g>
        <path d="M127.34,40.35c5.65-3.69,11.7-6.55,18.56-7.15,2.18-.19,7.28.81,8.6-.52,2.37-2.38-1.66-2.97-3.4-3.14-6.24-.61-12.8,1.01-18.49,3.52-1.38.61-6.18,3.06-6.9,4.01"/>
        <path d="M127.67,44.33c-1.47,5.58,4.23,2.45,7.52,2.17,4.04-.34,8.66.52,12.49,1.79,1.51.5,7,4.24,7.57,1.23.49-2.58-5.43-4.46-7.46-5.1-6.73-2.13-13.37-2.14-20.13-.08"/>
        <path d="M127.06,56.4c.29.73,10.21,4.48,12.31,5.81,1.68,1.05,7.62,6.49,8.45,6.47,6.27-.13-4.44-8.36-5.82-9.27-2.24-1.48-10.12-5.49-12.5-5.58"/>
      </g>
    </g>
  </g>
</svg>