<?xml version="1.0" encoding="UTF-8"?>
<svg xmlns="http://www.w3.org/2000/svg" width="354.48" height="483.36" viewBox="0 0 354.48 483.36">
  <g id="kitty">
    <path id="body" d="M43.9,306.12c7.99-26.47-18.43,6.27-19.07,4.56-5.96-16.16,1.53-26.05,9.4-43.47,3.61-8.92,9.31-16.99,15.27-24.44,4.26-5.5,8.97-10.94,12.15-17.1,3.84-6.92-.6-12.26-5.05-17.44-8.91-10.86-14.28-24.03-17.8-37.9-1.62-6.16-2.7-12.46-4.71-18.49-2.58-7.79-6.8-14.91-9.59-22.63-4.91-13.7-8.16-29.64-10.56-44.53-.87-6.15,2.63-10.67,8.12-12.85,5.47-2.34,11.37-3.71,17.26-4.64,10.17-1.63,21.62-1.15,31.33.07,6.02.7,12.03,2.19,18.13,1.74,8.3-.6,16.54-5.25,24.89-7.32,5.38-1.55,11.16-2.46,16.02-5.3,4.05-2.34,7.17-5.94,10.2-9.46,4.82-5.7,9.91-11.3,15.68-16.2,6.75-5.34,14.44-12.58,23.17-10.33,3.14.82,6.1,2.6,8.74,4.55,6.01,4.5,11.45,9.92,16.29,15.66,2.95,3.4,5.73,7.26,9.4,9.89,6.98,5.36,14.93-.5,22.04-2.51,8.12-2.42,17.54-3.94,25.63-2.12,32.61,7.92,36.41,67.48,35.39,94.83-1.02,35.47-11.55,83.61-22.09,111.42-1.91,5.65-5.78,11.46-11.72,12.51-30.49,9.31-122.48,5.12-173.97,20.72-17.08,5.23-6.8,5.15-14.4,7.46-2.28.69-17.88,14.49-19.99,13.12l-10.17.23Z" fill="#ffe3af" stroke="#ec1d25" stroke-linecap="round" stroke-linejoin="round" stroke-width="13"/>
    <path id="body-2" data-name="body" d="M24.43,316c.19-3.69.39-5.25.58-7.76.75-9.54,3.07-26.21,10.3-42.1,1.93-4.28,4.08-8.29,6.47-12.23,3-4.96,6.51-9.98,9.98-14.74,3.66-5.05,7.15-9.68,10.19-14.77,1.02-1.76,2.15-3.85,1.95-5.89-.62-4.42-5.22-7.22-7.63-10.71-5.47-6.75-9.52-14.26-12.66-22.42-3.79-9.65-5.91-20.13-8.1-30.2-1.3-5.72-4.11-10.84-6.72-16.05-7.13-14.17-9.9-29.86-13.11-45.36-2.78-14.33-5.36-18.23,10.7-23.26,15.53-5.14,32.99-4.77,49.06-2.21,17.19,3.62,17.29,1.19,32.72-4.69,7.26-2.91,16.28-2.62,22.79-6.7,2.89-1.94,5.2-4.88,7.43-7.57,3.6-4.47,7.29-8.81,11.34-12.84,4.05-4.03,8.68-7.91,13.67-11.44,9.77-7.06,14.63-7.22,24.22.42,5.98,4.62,11.98,10.3,16.7,16.21,2.95,3.56,5.51,7.83,9.13,10.76,4.48,4.03,10,.95,14.45-1.43,7-3.48,15.06-4.9,22.88-5.49,9.42-.98,16.58,1.31,23.11,8.19,10.93,11.15,14.75,26.98,17.96,41.86,12.05,44.64-3.96,116.11-17.04,152.63-3.09,8.08-1.97,11.89-12.02,12.74-27.59,7.21-131.13,32.61-185.29,45.21-20.13,4.57-41.56,9.64-48.12,11.07-1.31.31-4.38,4.09-5.23,2.8l.32-4.03Z" fill="#fff"/>
    <g id="Layer_4" data-name="Layer 4">
      <path d="M74.06,218.89c9.96,4.52,16.73,7.19,34.16,10.04,10.5,1.46,21.38,1.9,31.83,1.02,14.92-1.45,26.46-5.06,39.98-9.96,19.98-7.36,39.69-18.02,49.49-34.74" fill="none" stroke="#ec1d25" stroke-miterlimit="10" stroke-width="5"/>
      <path d="M191.99,38.37c-7.36-10.37-15.41-15.27-26.61-5.91-3.68,2.97-7.03,6.26-10.82,10.32-3.36,4.11-20.15,20.58-6.11,20.1,10.07-.62,20.94-1.75,31.19-.91,5.94.16,14.93,2.01,19.52-1.11,6.92-5.67-3.64-17.03-7.05-22.33l-.12-.16Z" fill="#ec1d25"/>
      <path d="M23.96,98.1c-2.21-12.52-.04-21.69,14.49-23.09,4.7-.53,9.39-.61,14.95-.46,5.29.49,28.8.12,18.6,9.77-7.52,6.73-15.96,13.67-22.56,21.56-4.06,4.34-9.05,12.04-14.5,13.12-8.9.94-9.56-14.55-10.94-20.71l-.03-.2Z" fill="#ec1d25"/>
      <path d="M143.28,165.88c2.16,15.05,26.22,19.04,28.77,2.49.31-2.04-.77-5.75,1-6.83,4.65-2.84,3.19,8.15,2.23,10.76-4.76,12.94-22.11,14.77-30.35,4.5-1.51,4.07-2.08,7.52-5.12,10.89-7.24,8-19.28,9.32-26.85,1.17-1.83-1.97-5.94-8.46-.43-7.26.65.14,3.9,4.85,5.61,6.06,12.69,9.06,26.28-6.77,21.45-19.67-5.34-.6-13.09-2.62-14.38-8.75-1.33-6.32,14.81-10.69,19.53-10.43,9.61.54,3.86,14.12-1.46,17.07Z" fill="#ec1d25"/>
    </g>
    <circle cx="159.52" cy="220.08" r="16.5" fill="#ffff20"/>
    <path d="M111.57,146.61c-2.12,3.72-7.43-1.75-9.48-2.86-9.13-4.95-19.47-2.95-25.52,5.6-2.14,3.02-3.55,10.29-8.06,8.95-5.77-1.72.14-12.75,2.28-15.68,7.49-10.22,22.51-12.98,33.25-6.44,2.58,1.57,9.47,6.99,7.52,10.43Z" fill="#ec1d25"/>
    <path d="M197.31,121.47c-2.12,3.72-7.43-1.75-9.48-2.86-9.13-4.95-19.47-2.95-25.52,5.6-2.14,3.02-3.55,10.29-8.06,8.95-5.77-1.72.14-12.75,2.28-15.68,7.49-10.22,22.51-12.98,33.25-6.44,2.58,1.57,9.47,6.99,7.52,10.43Z" fill="#ec1d25"/>
    <path d="M93.78,172.58c-.84-.85-5.92-2.66-7.36-3.09-5.96-1.76-12.68-2.52-18.79-1.1-1.71.39-5.63,1.5-2.96,3.56,1.48,1.14,6.41-.51,8.6-.6,6.88-.3,13.26,1.76,19.33,4.69" fill="#fff"/>
    <path d="M92.77,180.03c-6.96-1.17-13.55-.3-19.95,2.68-1.93.9-7.56,3.53-6.74,6.02.96,2.92,5.92-1.51,7.35-2.2,3.64-1.75,8.1-3.21,12.16-3.39,3.3-.15,9.36,2.22,7.18-3.12" fill="#fff"/>
    <path d="M92.18,189.69c-2.35.39-9.64,5.39-11.67,7.15-1.25,1.08-10.8,10.63-4.57,9.95.82-.09,6.01-6.25,7.54-7.51,1.92-1.59,11.26-6.6,11.46-7.35" fill="#fff"/>
    <g>
      <path d="M92.59,176.04c-6.08-2.93-12.45-4.98-19.33-4.69-2.18.09-7.12,1.74-8.6.6-2.66-2.06,1.26-3.16,2.96-3.56,6.11-1.41,12.83-.66,18.79,1.1,1.44.43,6.52,2.23,7.36,3.09" fill="#ec1d25"/>
      <path d="M92.77,180.03c2.18,5.35-3.88,2.98-7.18,3.12-4.05.18-8.52,1.63-12.16,3.39-1.43.69-6.39,5.11-7.35,2.2-.82-2.5,4.81-5.13,6.74-6.02,6.4-2.98,12.99-3.85,19.95-2.68" fill="#ec1d25"/>
      <path d="M94.94,191.92c-.2.76-9.54,5.77-11.46,7.35-1.53,1.26-6.72,7.42-7.54,7.51-6.23.68,3.32-8.87,4.57-9.95,2.03-1.76,9.32-6.76,11.67-7.15" fill="#ec1d25"/>
    </g>
    <g>
      <path d="M186.56,145.85c4.56-4.97,9.73-9.23,16.23-11.51,2.06-.72,7.26-1.01,8.21-2.62,1.71-2.9-2.34-2.47-4.07-2.21-6.2.94-12.16,4.14-17.05,7.97-1.18.93-5.23,4.49-5.7,5.59" fill="#ec1d25"/>
      <path d="M187.87,149.62c-.05,5.77,4.7,1.33,7.83.25,3.83-1.33,8.52-1.63,12.55-1.35,1.59.11,7.83,2.39,7.64-.68-.16-2.63-6.36-2.98-8.49-3.11-7.05-.4-13.49,1.23-19.53,4.88" fill="#ec1d25"/>
      <path d="M190.25,161.47c.46.63,11,1.83,13.37,2.59,1.89.61,8.99,4.41,9.78,4.19,6.04-1.67-6.36-7.01-7.92-7.55-2.54-.88-11.16-2.83-13.48-2.32" fill="#ec1d25"/>
    </g>
  </g>
  <g id="Ramen_bowl" data-name="Ramen bowl">
    <g>
      <path d="M75.88,419.42c-.87,1.15,7.17,15.05,7.89,16.04,7.4,8.82,24.38,17.23,36.55,20.71,34.4,10.7,105.97,7.04,135.01-14.05,4.63-3.19,16.9-23.01,16.77-25.19.21-3.42-13.39,11.08-16.06,10.9-34.58.6-137.41,2.42-165.16,2.94-3.04.19-13.13-12.63-15-11.35h0Z" fill="#fff" stroke="#ec1d25" stroke-miterlimit="10" stroke-width="6"/>
      <path d="M22.76,305.95c-1.8,6.11-1.07,12.64-.74,19.06.88,13.43,3.2,29.04,7.79,42.65,5.56,17.09,15.77,31.46,28.36,44.16,14.76,15.12,34.5,25.57,54.91,30.69,18.42,4.72,37.66,5.87,56.61,5.92,49.22.13,99.98-10.43,131.38-51.98,18.18-25.25,22.73-61.61,21.57-90.69-.99-12.66-8.09-19.36-18.5-28.22-39.26-31.24-108.46-31.01-149.59-30.51-21.6,2.08-39.81,4.72-67.42,12.2-10.26,2.96-20.1,6.47-29.33,11.67-12.81,7.16-30.38,22.36-35.01,34.95l-.03.1Z" fill="#fff" stroke="#ec1d25" stroke-miterlimit="10" stroke-width="6"/>
      <g>
        <path d="M22.84,327.13s2.49,28.27,38.25,41.57c0,0,3.33,1.66,4.71,1.39s2.49-4.43-2.22-5.54-16.07-7.73-22.73-13.43-12.75-15.4-14.97-23.99-3.17-13.77-3.98-13.03.93,13.03.93,13.03Z" fill="#ec1d25"/>
        <path d="M235.96,373.42s-41.29,8.59-61.53,7.48c0,0-4.41,1.39-2.9,3.05s17.31,2.49,33.38,0,29.93-5.54,31.04-6.1,1.59-.55,1.52-2.43-1.52-2.01-1.52-2.01Z" fill="#ec1d25"/>
        <path d="M269.98,363.93s-1.04,1.46,0,2.7,12.89.83,26.4-9.98,23.9-24.94,23.9-24.94c0,0,1.85-16,1.85-16.01-.93,8.03-7.38,14.86-12.38,20.78-5.13,6.07-10.67,12.29-17.14,17.16s-14.54,8.01-22.63,10.29Z" fill="#ec1d25"/>
      </g>
      <path d="M41.07,312.81c.66-1.33,1.49-2.68,2.52-4.07,18.83-25.48,61.82-34.54,93.66-39.72,42.55-6.93,88.71-5.76,129.43,7.77,27.77,9.23,66.63,30.19,34.54,57.46-17.12,14.55-40.54,19.79-63.35,23.13-27.62,4.04-55.9,7.02-83.93,6.73-28.08-.3-55.47-4.83-81.27-14.68-17.1-6.53-40.49-18.67-31.59-36.61Z" fill="none" stroke="#ec1d25" stroke-miterlimit="10" stroke-width="6"/>
      <g>
        <g>
          <path d="M237.46,284.95c0,37.18-22.31,37.43-22.59,74.14h13.42c-3.18-35.57,22.7-37.32,22.7-74.16,0-37.42-22.6-37.42-22.6-74.84,0-37.42,22.6-37.42,22.6-74.84,0-33.39-16.91-36.76-21.51-63.67h-14.15c3.36,26.46,22.13,30.54,22.13,63.68,0,37.42-22.6,37.42-22.6,74.84s22.6,37.42,22.6,74.84Z" fill="#fffdc5" stroke="#ec1d25" stroke-miterlimit="10" stroke-width="3"/>
          <path d="M237.46,284.95c0,37.18-22.31,37.43-22.59,74.14h13.42c-3.18-35.57,22.7-37.32,22.7-74.16,0-37.42-22.6-37.42-22.6-74.84,0-37.42,22.6-37.42,22.6-74.84,0-33.39-16.91-36.76-21.51-63.67h-14.15c3.36,26.46,22.13,30.54,22.13,63.68,0,37.42-22.6,37.42-22.6,74.84s22.6,37.42,22.6,74.84Z" fill="#fffdc5" stroke="#ec1d25" stroke-miterlimit="10" stroke-width="3"/>
        </g>
        <g>
          <path d="M249.88,284.95c0,37.18-22.31,37.43-22.59,74.14h13.42c-3.18-35.57,22.7-37.32,22.7-74.16,0-37.42-22.6-37.42-22.6-74.84,0-37.42,22.6-37.42,22.6-74.84,0-33.39-16.91-36.76-21.51-63.67h-14.15c3.36,26.46,22.13,30.54,22.13,63.68,0,37.42-22.6,37.42-22.6,74.84s22.6,37.42,22.6,74.84Z" fill="#fffdc5" stroke="#ec1d25" stroke-miterlimit="10" stroke-width="3"/>
          <path d="M249.88,284.95c0,37.18-22.31,37.43-22.59,74.14h13.42c-3.18-35.57,22.7-37.32,22.7-74.16,0-37.42-22.6-37.42-22.6-74.84,0-37.42,22.6-37.42,22.6-74.84,0-33.39-16.91-36.76-21.51-63.67h-14.15c3.36,26.46,22.13,30.54,22.13,63.68,0,37.42-22.6,37.42-22.6,74.84s22.6,37.42,22.6,74.84Z" fill="#fffdc5" stroke="#ec1d25" stroke-miterlimit="10" stroke-width="3"/>
        </g>
        <g>
          <path d="M261.76,284.95c0,37.18-22.31,37.43-22.59,74.14h13.42c-3.18-35.57,22.7-37.32,22.7-74.16,0-37.42-22.6-37.42-22.6-74.84,0-37.42,22.6-37.42,22.6-74.84,0-33.39-16.91-36.76-21.51-63.67h-14.15c3.36,26.46,22.13,30.54,22.13,63.68,0,37.42-22.6,37.42-22.6,74.84s22.6,37.42,22.6,74.84Z" fill="#fffdc5"/>
          <path d="M261.76,284.95c0,37.18-22.31,37.43-22.59,74.14h13.42c-3.18-35.57,22.7-37.32,22.7-74.16,0-37.42-22.6-37.42-22.6-74.84,0-37.42,22.6-37.42,22.6-74.84,0-33.39-16.91-36.76-21.51-63.67h-14.15c3.36,26.46,22.13,30.54,22.13,63.68,0,37.42-22.6,37.42-22.6,74.84s22.6,37.42,22.6,74.84Z" fill="none" stroke="#000" stroke-miterlimit="10" stroke-width="3"/>
        </g>
        <g>
          <path d="M261.76,284.95c0,37.18-22.31,37.43-22.59,74.14h13.42c-3.18-35.57,22.7-37.32,22.7-74.16,0-37.42-22.6-37.42-22.6-74.84,0-37.42,22.6-37.42,22.6-74.84,0-33.39-16.91-36.76-21.51-63.67h-14.15c3.36,26.46,22.13,30.54,22.13,63.68,0,37.42-22.6,37.42-22.6,74.84s22.6,37.42,22.6,74.84Z" fill="#fffdc5"/>
          <path d="M261.76,284.95c0,37.18-22.31,37.43-22.59,74.14h13.42c-3.18-35.57,22.7-37.32,22.7-74.16,0-37.42-22.6-37.42-22.6-74.84,0-37.42,22.6-37.42,22.6-74.84,0-33.39-16.91-36.76-21.51-63.67h-14.15c3.36,26.46,22.13,30.54,22.13,63.68,0,37.42-22.6,37.42-22.6,74.84s22.6,37.42,22.6,74.84Z" fill="none" stroke="#ec1d25" stroke-miterlimit="10" stroke-width="3"/>
        </g>
      </g>
      <path d="M228.5,48.03c-7.46,3.73-13.43,9.98-13.52,18.8-.31,30.61,45.66,25.26,60.26,10.55" fill="#fff" stroke="#ec1d25" stroke-miterlimit="10" stroke-width="5"/>
      <path d="M40.18,335.57c-4.05-5.44-4.5-13.75-1.7-19.82,4.26-9.23,14.96-16.56,22.86-22.43,10.16-7.55,22.28-11.91,34.41-15.23,27.09-7.4,55.44-9.59,83.42-7.56,14.16,1.03,28.23,3.12,42.1,6.14,12.77,2.78,26.38,5.63,38.04,11.58,12.45,6.35,27.14,19.42,22.83,35.05-2.63,9.54-12.59,17.54-20.38,23.08-16.8,11.93-36.77,14.95-56.63,18.47-22.6,4-45.64,6.04-68.59,4.8-17.54-.95-35.02-3.91-51.73-9.35-14.88-4.84-33.67-11.74-44.05-24-.2-.23-.39-.48-.57-.72Z" fill="#fffdc5" stroke="#ec1d25" stroke-miterlimit="10" stroke-width="3"/>
      <path d="M152.23,272.59c-1.7-1.82-1.6-4.66.2-6.38,7.55-7.18,16.46-12.69,25.92-13.68,6.99-.73,14.12,1.05,20.89,4.01,13.95,6.11,27.07,20.37,42.2,17.57,11.56-2.14,17.17-3.99,20.45-8.07,1.23-1.53,3.75-1.15,4.94-.51,2.43,1.32,7.97.29,6.2,2.42-4.49,5.39-4.88-.12-9.77,4.61-9.6,9.27-21.8,11.64-33.86,9.23-8.94-1.79-17.15-7.42-25.4-12.22s-17.8-10.42-26.52-7.96c-4.05,1.14-7.72,3.76-11.27,6.47-3.18,2.42-6.32,4.94-9.41,7.54-.31.26-.65.53-1.02.47-.31-.05-.57-.33-.82-.59l-2.72-2.91Z" fill="#fffdc5" stroke="#ec1d25" stroke-miterlimit="10" stroke-width="3"/>
      <path d="M102.75,274.7c8.17-8.71,18.27-15.75,29.1-16.88,6.99-.73,14.12,1.05,20.89,4.01,13.95,6.11,27.07,20.37,42.2,17.57,11.56-2.14,18.23-6.68,21.5-10.75,3.28-4.08,6.75,2.6,6.75,2.6-5.22,6.45-.66,1.02-6.44,6.6-9.6,9.27-21.8,11.64-33.86,9.23-8.94-1.79-17.15-7.42-25.4-12.22-8.05-4.68-17.8-10.42-26.52-7.96-4.05,1.14-7.72,3.76-11.27,6.47-3.18,2.42-6.32,4.94-9.41,7.54-.31.26-.65.53-1.02.47-.31-.05-.57-.33-.82-.59-1.9-2.03-3.8-4.06-5.7-6.08Z" fill="#fffdc5" stroke="#ec1d25" stroke-miterlimit="10" stroke-width="3"/>
      <path d="M156.44,279.36c6.8-10.46,15.77-19.35,26.35-21.91,6.83-1.65,14.18-.59,21.35,1.8,14.78,4.93,29.96,18.8,44.57,13.91,11.16-3.74,8.47-2.98,11.11-7.81.99-1.81,5.75-.36,7.03.19,2.71,1.17,6.3-.07,4.85,2.5-3.66,6.44,2.61-5.01-1.55.75-8.14,11.25-19.89,15.32-32.23,14.18-9.15-.85-18.15-5.96-27.07-10.15s-19.25-9.13-27.54-5.39c-3.85,1.74-7.1,5.03-10.22,8.41-2.79,3.02-5.53,6.14-8.21,9.35-.27.32-.56.66-.94.63-.31-.02-.62-.28-.9-.54-2.19-1.97-4.39-3.94-6.58-5.91Z" fill="#fffdc5" stroke="#ec1d25" stroke-miterlimit="10" stroke-width="3"/>
      <path d="M77.27,273.31c12.12-7.32,26.48-12.7,40.81-12.12,9.26.37,18.27,3.26,26.63,7.25,17.23,8.24,32.01,24.4,52.25,24.01,15.46-.3,39.31-14.13,44.26-17.64,4.95-3.52,9.03,4.08,9.03,4.08-7.89,5.56-16.06,10.84-24.54,15.45-14.08,7.66-30.4,8.09-45.76,3.8-11.38-3.18-21.18-10.04-31.17-16.08s-21.54-13.1-33.34-12.04c-5.49.49-10.71,2.51-15.8,4.62-4.56,1.89-9.07,3.89-13.54,5.98-.45.21-.94.42-1.41.3-.39-.1-.7-.41-.97-.71-2.15-2.3-4.29-4.61-6.44-6.91Z" fill="#fffdc5" stroke="#ec1d25" stroke-miterlimit="10" stroke-width="3"/>
      <path d="M160.85,304.73c.92.05,4.95-7.37,5.67-8.43,1.84-2.74,3.56-5.52,5.77-7.88,4.14-4.42,9.44-8.26,15.15-8.59,14.58-.85,33.39,10.71,49.38,10.62,15.99-.09,34.65-11.18,40.23-12.22,5.58-1.03,13.27-3.29,22.9,6.05,9.63,9.34,14.75,16.41,15.9,26.78,1.15,10.37-10.82,15.99-10.82,15.99l-1.02-2.32s3.96-4.5.04-11.49c-3.92-6.99-8.63-16.05-18.44-17.29-6.89-.87-12.71.46-19.12,3.49-8.61,4.06-16.07,9.58-25.65,7.52-5.25-1.13-10.15-3.69-15.09-6-17.56-8.23-42.25-13.29-55.59,7.66-3.11-1.3-6.22-2.6-9.33-3.9Z" fill="#fffdc5" stroke="#ec1d25" stroke-miterlimit="10" stroke-width="3"/>
      <path d="M298.67,301.83c.16.18.32.35.47.53,4.38,4.9,10.78,12.53,7.35,19.74-3.51,7.39-14.12,9.77-21.38,10.13-17.63.88-48.92-8.68-48.92-8.68l-8.44-1.69,14.41-7.97s21.35,6.17,25.57,6.89c6.31,1.08,13.28,2.99,19.71,1.86,2.61-.45,5.19-1.73,6.64-3.94,1.18-1.81,1.5-4.06,1.51-6.22.05-11.32-7.32-21.27-15.28-29.32,6.2,6.1,12.53,12.2,18.35,18.67Z" fill="#fffdc5" stroke="#000" stroke-miterlimit="10" stroke-width="2"/>
      <g>
        <path d="M69.66,232.5c-2.14-1.57-2.08-5.03-2.04-7.55.15-5.3,1.49-10.31,4.69-14.16,3.44-4.39,10.39-7.63,15.43-4.1,3.26,2.4,3.18,7.06,1.87,10.57-2.43,6.54-7.88,11.66-13.94,14.65-1.78.84-4.16,1.71-5.89.66l-.11-.07Z" fill="#fca870" stroke="#ec1d25" stroke-miterlimit="10" stroke-width="3"/>
        <path d="M59.9,289.21s-14.06-19.4-5.83-49.65c0,0,.53-1.55,1.29-3.67,1.48-4.09,9.54-18.14,10.73-19.2,1.77-1.57,11.81,11.16,12.17,11.61,2.52,3.2-2.44,19.91-2.63,24.13-.3,6.89,1.37,14.49,6.86,18.67,6.29,4.79,14.44,3.95,21.48,1.41,5.41-1.95,10.64-4.64,16.34-5.43,7.87-1.09,22.28,2.14,26.65,14.64-11.51,6.91-27.75,8.15-39.99,13.8l-47.08-6.32Z" fill="#fca870" stroke="#ec1d25" stroke-miterlimit="10" stroke-width="3"/>
        <path d="M54.07,239.56s5.15,5.42,9.87,6.37,13.15-.58,13.33-2.44" fill="none" stroke="#ec1d25" stroke-miterlimit="10" stroke-width="3"/>
        <path d="M51.39,255.73c4.29,7.97,17.62,13.17,24.98,5.6" fill="none" stroke="#ec1d25" stroke-miterlimit="10" stroke-width="3"/>
        <path d="M114.99,268.14c1.24-.37,4.26,1.47,6.95,8.11,2.69,6.64,2.63,11.15,2.63,11.15" fill="none" stroke="#ec1d25" stroke-miterlimit="10" stroke-width="3"/>
        <path d="M97.82,274.18s3.82,10.38,3.36,18.59" fill="none" stroke="#ec1d25" stroke-miterlimit="10" stroke-width="3"/>
        <path d="M85.25,273.11c-3.41,5.22-5.87,8.75-17.33,18.69" fill="none" stroke="#ec1d25" stroke-miterlimit="10" stroke-width="3"/>
        <path d="M70.67,228.24c-2.63.17-4.65-2.65-6.11-4.63-4-5.53-6.04-12.34-4.22-18.94,1.12-4.19,4.34-8.77,8.95-9.02,4.21-.13,6.82,4.08,7.8,7.76,1.79,6.74.65,14.1-2.14,20.36-.87,1.83-2.12,4.1-4.15,4.46l-.12.02Z" fill="#fca870" stroke="#ec1d25" stroke-miterlimit="10" stroke-width="3"/>
      </g>
      <path d="M269.43,340.26c.11.24,1.1-.24,1.21,0,2.89,6.6,6.66,12.43.66,18.84-6.15,6.57-17.98,5.51-25.65,3.46-18.63-4.98-47.91-25.47-47.91-25.47l-8.2-4.6,17.67-3.53s20.1,13.61,24.25,15.77c6.2,3.24,12.79,7.57,19.86,8.55,2.86.4,5.98-.07,8.23-1.91,1.84-1.5,2.93-3.75,3.67-6.01,3.88-11.84,7.04,1.75,1.49-9.34,4.38,8.47.85-4.49,4.72,4.23Z" fill="#fffdc5" stroke="#ec1d25" stroke-miterlimit="10" stroke-width="3"/>
      <path d="M294.04,319.15c.13.2,1.42-6.87,1.56-6.68,3.7,5.43,7.9,21.09,3.57,27.79-4.44,6.87-15.27,7.84-22.52,7.26-17.6-1.42-47.37-14.98-47.37-14.98l-8.14-2.78,15.32-6.03s20.36,8.9,24.46,10.16c6.12,1.89,12.77,4.69,19.3,4.42,2.64-.11,3.18-4.08,4.9-6.09,1.41-1.64,4.2-.78,4.5-2.92,1.52-11.21-4.49-22.04-11.33-31.06,5.35,6.86,10.83,13.73,15.76,20.9Z" fill="#fffdc5" stroke="#ec1d25" stroke-miterlimit="10" stroke-width="2"/>
      <path d="M279.13,334.2c.11.23.84-5.65.95-5.42,3.14,6.37,7.59,16.14,1.68,22.06-6.06,6.07-18.14,4.7-26.01,2.52-19.11-5.3-49.54-25.69-49.54-25.69l-8.48-4.62,17.89-2.83s20.88,13.56,25.16,15.75c6.41,3.27,13.25,7.59,20.48,8.74,2.93.46,6.08.11,8.32-1.57,1.83-1.37,2.87-3.48,3.56-5.61,3.6-11.16,8.83.06,2.85-10.67,4.71,8.2-1.05-1.08,3.15,7.34Z" fill="#fffdc5" stroke="#ec1d25" stroke-miterlimit="10" stroke-width="3"/>
      <path d="M125.8,330.16c.12.22.23.45.35.67,3.2,6.22,7.74,15.75,1.92,21.42-5.97,5.82-18,4.35-25.87,2.15-19.09-5.36-49.62-25.49-49.62-25.49l-6.54-4.86,15.82-2.26s20.94,13.4,25.23,15.57c6.42,3.25,13.28,7.52,20.49,8.71,2.92.48,6.06.18,8.27-1.43,1.81-1.31,2.82-3.34,3.48-5.41,3.45-10.78-1.43-22.88-7.51-33.35,4.78,8.01,9.71,16.05,13.98,24.28Z" fill="#fffdc5" stroke="#ec1d25" stroke-miterlimit="10" stroke-width="2"/>
      <path d="M206.3,335.12c.21.14.41.29.62.44,5.71,4.04,14.14,10.4,11.59,18.12-2.61,7.91-14.01,11.97-21.96,13.84-25.78,6.04-60.77-6.19-60.77-6.19l2.11-6.13,7.83,1.99s24.76,2.23,29.57,2.18c7.19-.08,11.57-7.93,18.52-10.19,2.81-.92,5.2-5.26,6.42-7.7,1-2,4.89,6.83,4.52,4.69-1.91-11.16-11.82-19.64-22.05-26.13,7.94,4.9,16.02,9.77,23.6,15.09Z" fill="#fffdc5" stroke="#ec1d25" stroke-miterlimit="10" stroke-width="2"/>
      <path d="M304.51,305.73c.16.18.32.35.47.53,4.38,4.9,10.78,12.53,7.35,19.74-3.51,7.39-14.12,9.77-21.38,10.13-17.63.88-48.92-8.68-48.92-8.68l-8.44-1.69,14.41-7.97s21.35,6.17,25.57,6.89c6.31,1.08,13.28,2.99,19.71,1.86,2.61-.45,5.19-1.73,6.64-3.94,1.18-1.81,1.5-4.06,1.51-6.22.05-11.32-7.32-21.27-15.28-29.32,6.2,6.1,12.53,12.2,18.35,18.67Z" fill="#fffdc5" stroke="#ec1d25" stroke-miterlimit="10" stroke-width="3"/>
      <path d="M162.26,284.56c1.92-1.73,2.97-7.24,4.53-9.24,1.49-1.92,2.87-3.86,4.66-5.5,3.36-3.08,7.66-5.75,12.32-5.94,11.91-.5,27.35,7.75,40.42,7.8,13.07.04,28.24-7.64,32.79-8.33s10.82-2.23,18.75,4.41c7.93,6.64,12.16,11.64,13.16,18.94,1,7.3-.69,11.95-.69,11.95l-8.89-2.41s3.2-3.14-.04-8.08c-3.25-4.94-7.15-11.34-15.18-12.28-5.63-.66-10.38.24-15.6,2.33-7.01,2.8-13.07,6.63-20.91,5.12-4.3-.83-8.32-2.66-12.37-4.32-14.4-5.91-34.61-9.63-45.37,5.02-2.52-.92-5.09,1.47-7.6.55Z" fill="#fffdc5" stroke="#ec1d25" stroke-miterlimit="10" stroke-width="2"/>
      <path d="M163.03,288.76c.75.04,4-5.15,4.58-5.89,1.49-1.92,2.87-3.86,4.66-5.5,3.36-3.08,7.66-5.75,12.32-5.94,11.91-.5,21.95,10.22,35.02,10.26,13.07.04,33.64-10.1,38.19-10.79s10.82-2.23,18.75,4.41c7.93,6.64,12.16,11.64,13.16,18.94,1,7.3-.69,11.95-.69,11.95l-8.89-2.41s3.2-3.14-.04-8.08-7.15-11.34-15.18-12.28c-5.63-.66-10.38.24-15.6,2.33-7.01,2.8-13.07,6.63-20.91,5.12-4.3-.83-8.32-2.66-12.37-4.32-14.4-5.91-34.61-9.63-45.37,5.02-2.55-.93-5.1-1.87-7.65-2.8Z" fill="#fffdc5" stroke="#ec1d25" stroke-miterlimit="10" stroke-width="2"/>
      <path d="M237.24,332.11c.15.2.31.4.46.6,4.25,5.55,10.4,14.14,5.67,20.75s-17.74,10.24-25.08,6.67c-24.49-11.9-53.95-18.77-53.33-16.35l-9.17-3.01,17.05-5.63s22.97,9.5,27.58,10.88c6.89,2.06,14.39,5.06,21.7,4.97,2.96-.04,5.99-.89,7.89-2.86,1.55-1.61,2.19-3.79,2.47-5.93,1.5-11.22-5.44-22.27-13.27-31.51,6.12,7.04,12.38,14.09,18.04,21.43Z" fill="#fffdc5" stroke="#ec1d25" stroke-miterlimit="10" stroke-width="2"/>
      <path d="M224.96,300.85c-7.79,8.2-16.94,14.36-25.92,14.11-5.8-.16-11.38-3.03-16.52-7.12-10.59-8.43-19.45-25.44-32.16-24.5-9.71.72-25.03,16.23-28.23,20.15-3.2,3.91-5.56-4.16-5.56-4.16,5.09-6.19,10.36-12.09,15.8-17.27,9.03-8.61,19.29-9.5,28.81-5.28,7.06,3.13,13.03,10.26,19.14,16.5s13.17,13.55,20.61,12.1c3.45-.67,6.78-2.98,10.03-5.39,2.91-2.16,5.79-4.42,8.65-6.79.28-.24.6-.48.89-.36.25.1.43.43.59.74,1.29,2.42,2.57,4.85,3.86,7.27Z" fill="#fffdc5" stroke="#000" stroke-miterlimit="10" stroke-width="2"/>
      <path d="M227.58,292.53c-7.79,8.2-16.94,14.36-25.92,14.11-5.8-.16-11.38-3.03-16.52-7.12-10.59-8.43-19.45-25.44-32.16-24.5-9.71.72-25.03,16.23-28.23,20.15-3.2,3.91-5.56-4.16-5.56-4.16,5.09-6.19,10.36-12.09,15.8-17.27,9.03-8.61,19.29-9.5,28.81-5.28,7.06,3.13,13.03,10.26,19.14,16.5s13.17,13.55,20.61,12.1c3.45-.67,6.78-2.98,10.03-5.39,2.91-2.16,5.79-4.42,8.65-6.79.28-.24.6-.48.89-.36.25.1.43.43.59.74,1.29,2.42,2.57,4.85,3.86,7.27Z" fill="#fffdc5" stroke="#ec1d25" stroke-miterlimit="10" stroke-width="3"/>
      <path d="M157.95,301.85c7.79-8.2,16.94-14.36,25.92-14.11,5.8.16,11.38,3.03,16.52,7.12,10.59,8.43,19.45,25.44,32.16,24.5,9.71-.72,25.03-16.23,28.23-20.15,3.2-3.91,5.56,4.16,5.56,4.16-5.09,6.19-10.36,12.09-15.8,17.27-9.03,8.61-19.29,9.5-28.81,5.28-7.06-3.13-13.03-10.26-19.14-16.5s-13.17-13.55-20.61-12.1c-3.45.67-6.78,2.98-10.03,5.39-2.91,2.16-5.79,4.42-8.65,6.79-.28.24-.6.48-.89.36-.25-.1-.43-.43-.59-.74-1.29-2.42-2.57-4.85-3.86-7.27Z" fill="#fffdc5" stroke="#000" stroke-miterlimit="10" stroke-width="2"/>
      <path d="M162.26,284.56c7.79-8.2,16.94-14.36,25.92-14.11,5.8.16,15.36,2.16,20.85,5.76,13.21,8.66,11.69,21.85,25.68,24.25,9.6,1.64,27.18-14.63,30.38-18.54,3.2-3.91,5.56,4.16,5.56,4.16-5.09,6.19-10.36,12.09-15.8,17.27-9.03,8.61-19.29,9.5-28.81,5.28-7.06-3.13-13.03-10.26-19.14-16.5-5.96-6.09-13.17-13.55-20.61-12.1-3.45.67-6.78,2.98-10.03,5.39-2.91,2.16-5.79,4.42-8.65,6.79-.28.24-.6.48-.89.36-.25-.1-.43-.43-.59-.74-1.29-2.42-2.57-4.85-3.86-7.27Z" fill="#fffdc5" stroke="#ec1d25" stroke-miterlimit="10" stroke-width="2"/>
      <path d="M159.64,292.88c7.79-8.2,16.94-14.36,25.92-14.11,5.8.16,11.38,3.03,16.52,7.12,10.59,8.43,19.45,25.44,32.16,24.5,9.71-.72,25.03-16.23,28.23-20.15s5.56,4.16,5.56,4.16c-5.09,6.19-10.36,12.09-15.8,17.27-9.03,8.61-19.29,9.5-28.81,5.28-7.06-3.13-13.03-10.26-19.14-16.5-5.96-6.09-13.17-13.55-20.61-12.1-3.45.67-6.78,2.98-10.03,5.39-2.91,2.16-5.79,4.42-8.65,6.79-.28.24-.6.48-.89.36-.25-.1-.43-.43-.59-.74-1.29-2.42-2.57-4.85-3.86-7.27Z" fill="#fffdc5" stroke="#000" stroke-miterlimit="10" stroke-width="2"/>
      <g id="CmFkaw">
        <g>
          <path d="M194.09,276.24c.45.28.81.25.91.3s.59.38.75.5c.93.69,1.4,2.15,1.23,3.28-.22,1.42-1.44,2-.57,3.68.26.5.73.76,1.06,1.2.86,1.14.97,2.69.25,3.95-.64,1.11-1.84,1.26-2.12,2.73-.16.83.19,1.08.37,1.77.44,1.62-.02,3.21-1.47,4.12-.92.57-1.89.4-2.64,1.27-.92,1.07-.38,1.94-.85,3.09-.38.93-1.72,2.02-2.75,2.12-.91.09-1.72-.28-2.61-.04-1.53.41-1.4,1.58-2.32,2.5-1.03,1.05-2.65,1.31-3.99.72-.47-.21-.94-.69-1.4-.81-2.36-.63-2.85,1.94-5.66,1.44-2.13-.38-2.05-2.2-3.47-2.83-.55-.24-1.29-.29-1.88-.19-.07.01-.08.15-.14.16-1.72.41-3.45-.21-4.22-1.87-.38-.83-.29-2.23-1.01-2.83-.86-.72-2.01-.54-2.99-1.07-1.03-.56-1.79-1.74-1.82-2.92s.66-1.67.19-3c-.41-1.15-1.44-1.24-2.12-2.05-.78-.93-1.02-2.27-.64-3.41.45-1.35,1.78-1.74,1.42-3.46-.14-.65-.51-.92-.78-1.45-.69-1.35-.44-3.15.68-4.21.84-.79,1.86-.7,2.4-1.93.49-1.14-.07-1.7.05-2.73.16-1.3,1.14-2.51,2.37-2.92.22-.08.38,0,.55-.04.07-.01.07-.16.14-.17.37-.06.82.04,1.29-.08,1.88-.47,1.48-1.91,2.27-3.13.5-.78,1.45-1.42,2.37-1.58,1.77-.29,3.25,1.4,4.87-.12.26-.25.24-.43.38-.59.05-.06.86-.69.98-.77,1.07-.68,2.45-.7,3.57-.13.9.46,1.11,1.42,2.31,1.63,1.56.27,1.97-.69,3.24-.79,1.45-.11,2.83.48,3.53,1.79.34.64.41,1.47,1.02,1.92,1.55,1.12,3.2-.22,4.96,1.58,1.81,1.86-.17,3.84,2.28,5.39ZM184.85,267.92c-.61-.95-1.64-1.44-2.76-1.14-1.29.35-1.51,1.03-3.19.73-1.57-.28-2.11-1.82-3.43-2.01-.45-.06-1.29-.07-1.67.21-.99.73-1.15,1.77-2.64,2.18-1.8.49-2.72-.7-4.13-.4-2.02.45-1.58,2.29-2.65,3.57-.47.56-1.41,1.07-2.13,1.17-.43.06-1.02-.05-1.41.04-.14.03-.12.13-.22.17-.06.03-.19-.03-.26.02-.32.19-.83.81-.99,1.16-.53,1.14.01,1.65-.07,2.71-.1,1.32-.95,2.29-2.05,2.9-.67.37-.87.21-1.32,1.03-1.15,2.1.94,2.83.86,4.91s-2.35,2.9-1.4,5.01c.6,1.34,2.22,1.25,2.76,3.28.34,1.26-.28,1.98-.21,3.1.03.58.42,1.27.86,1.64,1.08.9,2.54.32,3.8,1.76,1.1,1.25.43,2.96,1.9,3.88,1.45.9,3.2-.63,5.17.54,1.38.82.99,1.77,2.84,2.51.08.03.03.16.19.19.44.09.4-.13.49-.15,1.19-.29.77-.19,1.66-.82,1.06-.75,2.56-1,3.8-.55.44.16.71.49,1.09.66.7.31,1.68.35,2.32-.09.74-.51.91-1.47,1.47-2.01.44-.42,1.69-1.14,2.29-1.18,1.18-.07,1.64.61,2.92,0,.73-.35,1.33-1.19,1.41-1.99.1-1.03-.02-1.49.65-2.43,1.19-1.68,3.03-.91,3.92-2.53s-.16-2.04-.25-3.32c-.06-.73.05-1.46.39-2.11.77-1.44,2.33-1.41,2.17-3.52-.09-1.13-1.03-1.48-1.53-2.32-.15-.25-.46-1.06-.51-1.35-.3-1.78,1.22-2.66.74-4.35s-2.53-1.43-3.45-2.84c-.78-1.19-.55-1.81-.6-3.06-.04-.9-.88-1.9-1.76-2.12-.71-.18-1.37.03-2.04-.08-.8-.14-1.76-.67-2.25-1.32-.37-.49-.44-1.14-.77-1.67Z" stroke="#ec1d25" stroke-miterlimit="10" stroke-width="2"/>
          <path d="M184.85,267.92c.34.53.4,1.17.77,1.67.49.65,1.45,1.19,2.25,1.32.67.12,1.34-.1,2.04.08.88.22,1.72,1.22,1.76,2.12.05,1.26-.18,1.87.6,3.06.93,1.41,2.96,1.08,3.45,2.84s-1.04,2.57-.74,4.35c.05.29.36,1.09.51,1.35.5.85,1.45,1.19,1.53,2.32.16,2.11-1.4,2.08-2.17,3.52-.34.64-.45,1.38-.39,2.11.1,1.28,1.1,1.77.25,3.32s-2.72.85-3.92,2.53c-.67.95-.56,1.41-.65,2.43-.07.8-.67,1.65-1.41,1.99-1.28.6-1.74-.08-2.92,0-.61.04-1.85.75-2.29,1.18-.56.54-.73,1.5-1.47,2.01-.65.44-1.63.41-2.32.09-.38-.17-.65-.5-1.09-.66-1.23-.45-2.74-.2-3.8.55-.89.63-.46.53-1.66.82-.09.02-.04.25-.49.15-.16-.03-.11-.16-.19-.19-1.85-.74-1.46-1.7-2.84-2.51-1.97-1.17-3.72.37-5.17-.54-1.47-.91-.81-2.62-1.9-3.88-1.26-1.44-2.72-.87-3.8-1.76-.44-.36-.83-1.06-.86-1.64-.06-1.13.55-1.84.21-3.1-.54-2.03-2.16-1.94-2.76-3.28-.95-2.12,1.32-2.86,1.4-5.01s-2.01-2.81-.86-4.91c.45-.82.64-.65,1.32-1.03,1.1-.61,1.95-1.59,2.05-2.9.08-1.05-.46-1.57.07-2.71.16-.35.67-.96.99-1.16.07-.04.21,0,.26-.02.1-.05.08-.14.22-.17.4-.08.98.02,1.41-.04.72-.1,1.67-.61,2.13-1.17,1.07-1.28.63-3.12,2.65-3.57,1.4-.31,2.33.89,4.13.4,1.5-.41,1.66-1.45,2.64-2.18.37-.27,1.22-.27,1.67-.21,1.32.19,1.86,1.73,3.43,2.01,1.68.29,1.9-.38,3.19-.73,1.11-.3,2.15.19,2.76,1.14ZM185.16,273.82c-2.79-1.93-6.56-1.82-9.71-1.09-5.99,1.39-8.81,6.23-8.77,12.2.05,7.45,8.24,11,14.63,8.53,6.47-2.51,5.31-13.96-2.75-13.68-3.57.12-6.79,3.96-4.63,7.28,1.06,1.63,3,2.35,4.8,1.37,2.08-1.13,1.09-3.52-.9-3.22-.48.07-.99.61-1.19-.22-.22-.88.92-1.47,1.6-1.71.07-.02.08-.15.15-.16.8-.13,2.39.45,2.96,1.03.91.92.82,3.58.29,4.66-1.13,2.3-4.63,2.3-6.78,1.8-4.86-1.12-5.64-6-4.01-10.06,1.36-3.37,4.09-4.62,7.6-4.86,8.11-.56,11.17,8.5,9.19,15.13-1.18,3.94-6.69,6.54-10.44,6.38-7.56-.32-15.03-6.47-12.6-14.63.31-1.05,1.17-2.1.1-3.06-.7-.63-1.85-.59-2.45.14-1.09,1.31-1.51,4.55-1.5,6.21.1,10.47,12.84,17.44,22.14,13.69,4.94-2,8.13-5.61,8.65-11.09.56-5.86-1.52-11.28-6.35-14.63Z" fill="#fefefe"/>
          <path d="M185.16,273.82c4.84,3.35,6.91,8.77,6.35,14.63-.52,5.48-3.7,9.09-8.65,11.09-9.3,3.76-22.04-3.21-22.14-13.69-.02-1.66.41-4.9,1.5-6.21.6-.73,1.75-.76,2.45-.14,1.07.96.21,2-.1,3.06-2.43,8.16,5.04,14.31,12.6,14.63,3.75.16,9.26-2.44,10.44-6.38,1.98-6.63-1.08-15.68-9.19-15.13-3.5.24-6.24,1.48-7.6,4.86-1.63,4.06-.85,8.94,4.01,10.06,2.14.49,5.64.5,6.78-1.8.53-1.08.62-3.74-.29-4.66-.57-.57-2.17-1.16-2.96-1.03-.07.01-.08.14-.15.16-.68.24-1.82.83-1.6,1.71.2.83.71.29,1.19.22,1.99-.3,2.98,2.09.9,3.22-1.79.97-3.74.26-4.8-1.37-2.15-3.32,1.07-7.16,4.63-7.28,8.07-.28,9.22,11.17,2.75,13.68-6.38,2.47-14.58-1.07-14.63-8.53-.04-5.97,2.78-10.81,8.77-12.2,3.15-.73,6.92-.84,9.71,1.09Z" fill="#ff4b95"/>
        </g>
      </g>
      <path d="M105.72,314.89c11.44-8.34,25.29-14.92,39.62-15.57,9.25-.42,18.48,1.67,27.15,4.94,17.87,6.73,33.99,21.56,54.12,19.44,15.38-1.62,37.95-17.45,42.58-21.38,4.63-3.93,9.35,3.29,9.35,3.29-7.38,6.21-15.07,12.18-23.12,17.5-13.37,8.84-29.6,10.67-45.27,7.71-11.61-2.19-21.96-8.18-32.44-13.34-10.22-5.03-22.58-11.2-34.25-9.13-5.42.96-10.46,3.42-15.34,5.96-4.38,2.28-8.7,4.65-12.98,7.12-.43.25-.9.5-1.38.42-.4-.07-.73-.35-1.03-.62-2.34-2.11-4.67-4.22-7.01-6.33Z" fill="#fffdc5" stroke="#000" stroke-miterlimit="10" stroke-width="2"/>
      <g id="CmFkaw-2" data-name="CmFkaw">
        <g>
          <path d="M190.04,289.01c-.07-.52-.32-.78-.34-.89s-.08-.69-.09-.89c-.06-1.15.77-2.45,1.74-3.04,1.23-.74,2.46-.17,3.21-1.91.22-.52.12-1.05.24-1.58.33-1.39,1.46-2.46,2.88-2.71,1.26-.22,2.14.62,3.45-.11.74-.41.71-.83,1.12-1.41.97-1.37,2.49-2.03,4.11-1.49,1.03.34,1.51,1.2,2.66,1.23,1.41.03,1.74-.94,2.92-1.31.96-.3,2.65.04,3.38.77.65.64.88,1.5,1.63,2.04,1.29.92,2.11.08,3.4.19,1.47.13,2.7,1.21,3.1,2.61.14.49.07,1.16.27,1.6,1.02,2.22,3.31.96,4.71,3.44,1.07,1.89-.39,2.99.03,4.48.16.58.6,1.18,1.05,1.57.05.05.17-.03.22,0,1.42,1.07,2.03,2.79,1.24,4.44-.4.83-1.54,1.65-1.54,2.58,0,1.12.87,1.89,1.08,2.99.23,1.15-.2,2.48-1.09,3.27s-1.71.56-2.43,1.76c-.63,1.05-.04,1.9-.23,2.94-.22,1.2-1.1,2.23-2.23,2.67-1.33.52-2.48-.26-3.57,1.11-.41.52-.38.98-.62,1.52-.6,1.39-2.15,2.35-3.67,2.16-1.14-.15-1.73-.99-3.02-.62-1.19.35-1.26,1.14-2.14,1.7-1.1.7-2.66.72-3.76.04-.2-.12-.25-.29-.38-.4-.06-.05-.17.05-.22,0-.29-.25-.49-.65-.88-.94-1.56-1.15-2.41.07-3.86.24-.91.11-2.02-.21-2.72-.82-1.36-1.18-.99-3.39-3.19-3.68-.36-.05-.49.09-.69.09-.08,0-1.08-.22-1.22-.27-1.21-.39-2.1-1.44-2.37-2.67-.22-.98.39-1.76-.21-2.82-.79-1.38-1.78-1.08-2.67-2-1.01-1.05-1.43-2.49-.87-3.86.28-.67.87-1.25.83-2.01-.12-1.91-2.21-2.33-1.94-4.83s3.07-2.31,2.7-5.19ZM189.51,301.44c-.34,1.08-.06,2.19.88,2.85,1.09.77,1.75.51,2.6,1.99.79,1.38-.06,2.79.64,3.92.24.38.77,1.04,1.22,1.15,1.19.3,2.09-.24,3.37.65,1.53,1.07,1.19,2.55,2.32,3.43,1.63,1.28,2.77-.24,4.44-.23.73,0,1.72.41,2.26.9.32.29.61.81.93,1.07.12.09.17.01.27.06.06.03.1.16.18.19.35.12,1.15.12,1.52.03,1.22-.31,1.27-1.06,2.13-1.67,1.08-.76,2.37-.73,3.54-.27.72.28.71.54,1.63.36,2.35-.45,1.58-2.52,3.24-3.79,1.71-1.31,3.73-.03,4.76-2.11.65-1.32-.45-2.51.77-4.22.76-1.06,1.7-1.05,2.53-1.81.43-.39.71-1.14.71-1.7,0-1.4-1.37-2.17-1.06-4.05.27-1.64,2.01-2.22,1.78-3.94s-2.53-2.06-2.88-4.33c-.25-1.58.74-1.89.13-3.79-.03-.08.1-.12.03-.27-.21-.4-.35-.22-.43-.28-.98-.74-.63-.47-1.69-.76-1.25-.34-2.4-1.34-2.85-2.57-.16-.44-.08-.86-.19-1.26-.2-.74-.8-1.52-1.55-1.73-.86-.25-1.71.23-2.48.15-.61-.07-1.95-.57-2.37-1.02-.81-.87-.57-1.65-1.86-2.26-.73-.34-1.77-.27-2.43.19-.85.58-1.13.96-2.29,1.05-2.06.15-2.63-1.76-4.45-1.41s-1.47,1.42-2.4,2.31c-.52.51-1.16.89-1.88,1.04-1.6.33-2.57-.89-4.09.57-.82.79-.48,1.73-.82,2.66-.1.28-.52,1.03-.71,1.25-1.18,1.36-2.83.76-3.82,2.2s.51,2.86.01,4.47c-.42,1.36-1.04,1.57-1.98,2.42-.67.6-.9,1.89-.52,2.71.31.66.9,1.04,1.24,1.63.4.7.6,1.79.41,2.58-.14.6-.6,1.06-.79,1.66Z" stroke="#ec1d25" stroke-miterlimit="10" stroke-width="2"/>
          <path d="M189.51,301.44c.19-.6.65-1.06.79-1.66.19-.79-.01-1.87-.41-2.58-.34-.59-.93-.97-1.24-1.63-.39-.82-.15-2.1.52-2.71.94-.84,1.56-1.05,1.98-2.42.5-1.61-1.05-2.96-.01-4.47s2.64-.83,3.82-2.2c.19-.22.62-.97.71-1.25.33-.93,0-1.87.82-2.66,1.53-1.47,2.49-.24,4.09-.57.71-.15,1.35-.53,1.88-1.04.93-.89.66-1.98,2.4-2.31s2.39,1.56,4.45,1.41c1.16-.09,1.44-.47,2.29-1.05.66-.45,1.7-.53,2.43-.19,1.28.6,1.05,1.39,1.86,2.26.42.45,1.76.95,2.37,1.02.78.09,1.62-.39,2.48-.15.75.21,1.35,1,1.55,1.73.11.4.03.82.19,1.26.44,1.23,1.59,2.24,2.85,2.57,1.05.28.7.02,1.69.76.07.06.22-.12.43.28.08.15-.05.19-.03.27.61,1.9-.38,2.21-.13,3.79.36,2.27,2.65,2.64,2.88,4.33s-1.51,2.29-1.78,3.94c-.31,1.88,1.06,2.65,1.06,4.05,0,.57-.29,1.31-.71,1.7-.83.77-1.77.75-2.53,1.81-1.22,1.71-.12,2.9-.77,4.22-1.03,2.08-3.05.8-4.76,2.11-1.65,1.27-.89,3.34-3.24,3.79-.92.18-.91-.08-1.63-.36-1.18-.46-2.46-.49-3.54.27-.86.61-.91,1.35-2.13,1.67-.37.1-1.17.1-1.52-.03-.08-.03-.12-.16-.18-.19-.1-.05-.16.03-.27-.06-.32-.25-.61-.77-.93-1.07-.54-.49-1.53-.9-2.26-.9-1.67-.01-2.81,1.51-4.44.23-1.13-.88-.8-2.36-2.32-3.43-1.27-.89-2.18-.35-3.37-.65-.45-.11-.99-.77-1.22-1.15-.69-1.13.15-2.54-.64-3.92-.84-1.48-1.5-1.23-2.6-1.99-.94-.66-1.22-1.77-.88-2.85ZM193.85,297.44c.29,3.38,2.77,6.22,5.34,8.18,4.89,3.74,10.41,2.83,14.99-1.01,5.71-4.79,3.23-13.36-2.74-16.71-6.05-3.39-14.15,4.8-8.79,10.84,2.37,2.67,7.37,2.71,8.56-1.06.58-1.85-.1-3.81-2-4.57-2.19-.88-3.41,1.41-1.91,2.75.36.33,1.1.37.59,1.06-.54.73-1.72.23-2.34-.14-.06-.04-.17.04-.22,0-.61-.53-1.17-2.13-1.09-2.94.12-1.29,2.23-2.91,3.41-3.19,2.5-.59,4.72,2.11,5.71,4.07,2.23,4.46-1.03,8.18-5.2,9.5-3.46,1.1-6.16-.21-8.58-2.76-5.59-5.9-.57-14.02,5.81-16.72,3.79-1.6,9.3.99,11.57,3.98,4.57,6.03,4.59,15.71-3.25,19.03-1.01.43-2.36.43-2.43,1.87-.04.94.72,1.8,1.67,1.8,1.7,0,4.47-1.73,5.74-2.8,8.01-6.75,5.27-21-3.55-25.78-4.69-2.54-9.5-2.69-14.06.4-4.87,3.3-7.73,8.35-7.23,14.21Z" fill="#fefefe"/>
          <path d="M193.85,297.44c-.5-5.86,2.36-10.91,7.23-14.21,4.55-3.09,9.37-2.94,14.06-.4,8.82,4.78,11.56,19.03,3.55,25.78-1.27,1.07-4.04,2.81-5.74,2.8-.95,0-1.71-.86-1.67-1.8.06-1.44,1.41-1.44,2.43-1.87,7.84-3.33,7.82-13,3.25-19.03-2.27-2.99-7.78-5.58-11.57-3.98-6.37,2.7-11.4,10.82-5.81,16.72,2.42,2.55,5.12,3.87,8.58,2.76,4.17-1.33,7.43-5.05,5.2-9.5-.98-1.97-3.21-4.67-5.71-4.07-1.18.28-3.28,1.9-3.41,3.19-.08.81.48,2.41,1.09,2.94.05.04.15-.03.22,0,.62.37,1.8.87,2.34.14.51-.68-.23-.73-.59-1.06-1.5-1.34-.28-3.63,1.91-2.75,1.89.76,2.58,2.72,2,4.57-1.19,3.77-6.19,3.74-8.56,1.06-5.35-6.04,2.74-14.23,8.79-10.84,5.97,3.35,8.46,11.92,2.74,16.71-4.57,3.83-10.1,4.74-14.99,1.01-2.57-1.96-5.05-4.8-5.34-8.18Z" fill="#ff4b95"/>
        </g>
      </g>
      <path d="M105.23,323.02c11.44-8.34,25.29-14.92,39.62-15.57,9.25-.42,18.48,1.67,27.15,4.94,17.87,6.73,33.99,21.56,54.12,19.44,15.38-1.62,37.95-17.45,42.58-21.38s9.35,3.29,9.35,3.29c-7.38,6.21-15.07,12.18-23.12,17.5-13.37,8.84-29.6,10.67-45.27,7.71-11.61-2.19-21.96-8.18-32.44-13.34s-22.58-11.2-34.25-9.13c-5.42.96-10.46,3.42-15.34,5.96-4.38,2.28-8.7,4.65-12.98,7.12-.43.25-.9.5-1.38.42-.4-.07-.73-.35-1.03-.62-2.34-2.11-4.67-4.22-7.01-6.33Z" fill="#fffdc5" stroke="#ec1d25" stroke-miterlimit="10" stroke-width="3"/>
      <path d="M49.78,334.86c9.25-.42,19.42-2.77,28.09.49,17.87,6.73,33.05,26.01,53.17,23.88,15.38-1.62,37.95-17.45,42.58-21.38,4.63-3.93,9.35,3.29,9.35,3.29-7.38,6.21-15.07,12.18-23.12,17.5-13.37,8.84-29.6,10.67-45.27,7.71-11.61-2.19-21.96-8.18-32.44-13.34" fill="#fffdc5" stroke="#ec1d25" stroke-miterlimit="10" stroke-width="3"/>
      <path d="M76.37,338.47c9.25-.42,18.48,1.67,27.15,4.94,17.87,6.73,33.99,21.56,54.12,19.44,15.38-1.62,37.95-17.45,42.58-21.38s9.45-2.52,9.45-2.52c-7.38,6.21-15.17,17.99-23.22,23.31-13.37,8.84-29.97,12.23-45.27,7.71-32.11-9.48-63.45-29.88-51.13-21.98" fill="#fffdc5" stroke="#ec1d25" stroke-miterlimit="10" stroke-width="3"/>
      <path d="M105.65,302.73c-.22-.24,18.97-8.93,20.77-9.43,16.07-4.56,27.9-7.82,46.67,4.57,15.94,10.52,32.01,24.4,52.25,24.01,15.46-.3,39.31-14.13,44.26-17.64,4.95-3.52,9.03,4.08,9.03,4.08-7.89,5.56-16.06,10.84-24.54,15.45-14.08,7.66-28.86,11.71-44.22,7.42-11.38-3.18-22.72-13.66-32.71-19.7-8.82-5.33-18.9-11.88-29.55-12.18-11.74-.33-22.82,5.92-33.13,10.74-.45.21-.94.42-1.41.3-.39-.1-.7-.41-.97-.71-2.15-2.3-4.29-4.61-6.44-6.91Z" fill="#fffdc5" stroke="#ec1d25" stroke-miterlimit="10" stroke-width="2"/>
      <path d="M104.87,294.64c12.12-7.32,27.76-13.5,42.1-12.91,9.26.37,18.27,3.26,26.63,7.25,17.23,8.24,32.01,24.4,52.25,24.01,15.46-.3,39.31-14.13,44.26-17.64s9.03,4.08,9.03,4.08c-7.89,5.56-16.06,10.84-24.54,15.45-14.08,7.66-30.4,8.09-45.76,3.8-11.38-3.18-21.18-10.04-31.17-16.08-9.75-5.89-21.54-13.1-33.34-12.04-5.49.49-10.71,2.51-15.8,4.62-4.56,1.89-9.07,3.89-13.54,5.98-.45.21-.94.42-1.41.3-.39-.1-.7-.41-.97-.71-2.15-2.3-5.58-3.81-7.73-6.11Z" fill="#fffdc5" stroke="#ec1d25" stroke-miterlimit="10" stroke-width="3"/>
      <path d="M273.85,288.09l-18.65,5.03s-3.28,17.63-3.06,17.63,33.22,5.76,33.22,5.76l-1.24-21.05-10.27-7.36Z" fill="#f9f7d7" stroke="#000" stroke-miterlimit="10" stroke-width="2"/>
      <path d="M259.49,311.91c-4.05,4.09-10.26,13.75-17.01,12.43-2.18-.43-4.1-1.68-5.84-3.05-2.27-1.79-4.36-3.84-5.95-6.26-1.11-1.69-1.97-3.81-1.21-5.68,1.93-4.73,8.66-2.38,12.3-2.68,5.19-.43,9.35-4.67,12.91-8.09" fill="#f9f7d7" stroke="#ec1d25" stroke-miterlimit="10" stroke-width="2.5"/>
      <path d="M252.36,284.89c3.4.91,6.19,2.63,7.42,6.13.44,1.24.6,2.64.12,3.86-.6,1.53-2.09,2.53-3.6,3.19-4.89,2.12-11.99,1.63-15.79-2.45-1.73-1.86-2.6-4.4-2.87-6.92-1.01-9.35,4.19-11.2,12.09-13.54,9.4-2.79,21.42,1.15,30.31,4.31,9.43,3.35,19.32,8.92,20.93,19.63,1.35,8.97-.89,18.68-9.72,22.34-9.08,3.76-24.77,9.01-31.08-1.99-.86-1.49-1.41-3.21-1.27-4.92.18-2.35,1.65-4.46,3.52-5.89,2.27-1.74,5.33-3.06,8.22-3.1,5.49-.08,9.42,4.78,11.43,9.42" fill="#f9f7d7" stroke="#ec1d25" stroke-miterlimit="10" stroke-width="2.5"/>
      <ellipse cx="241.59" cy="343.49" rx="16.63" ry="14.94" fill="#f9f7d7" stroke="#ec1d25" stroke-miterlimit="10" stroke-width="2.5"/>
      <ellipse cx="209.28" cy="358.35" rx="14.5" ry="12.15" fill="#f9f7d7" stroke="#ec1d25" stroke-miterlimit="10" stroke-width="2.5"/>
      <ellipse cx="243.52" cy="345.06" rx="10.06" ry="9.03" fill="#f9f7d7" stroke="#ec1d25" stroke-miterlimit="10" stroke-width="2.5"/>
      <ellipse cx="210.05" cy="359.13" rx="9" ry="7.17" fill="#f9f7d7" stroke="#ec1d25" stroke-miterlimit="10" stroke-width="2.5"/>
      <path d="M40.79,300.9c1.13-3.1,2.98-5.98,5.68-8.51,4.87-4.57,11.55-6.75,18.14-7.04,20.35-.89,56.31,10.6,59.52,34.37,1.99,14.74-8.59,27.99-21.2,34.26-15.36,7.65-31.43,3.39-43.59-8.15-10.84-10.29-24.28-29.16-18.55-44.93Z" fill="#fff" stroke="#ec1d25" stroke-miterlimit="10" stroke-width="3"/>
      <ellipse cx="92.51" cy="327.07" rx="22.22" ry="19.83" transform="translate(-25.27 8.23) rotate(-4.48)" fill="#ffff20" stroke="#ec1d25" stroke-miterlimit="10" stroke-width="3"/>
      <path d="M209.49,325.47c-3.76-3.95-9.6-6.69-13.95-8.31-11.7-4.34-24.74-4.88-37.07-4.42-12.17.45-29.27,2.57-35.75,14.69-4.63,8.67-.78,18.81,4.97,25.9,6.05,7.47,13.63,10.68,23.09,11.52,18.26,1.62,38.39-5.33,52.46-16.94l.07-.05c6.82-5.65,13.89-14.29,6.2-22.39Z" fill="#fff" stroke="#ec1d25" stroke-miterlimit="10" stroke-width="3"/>
      <ellipse cx="154" cy="343.49" rx="22.02" ry="14.35" fill="#ffff20" stroke="#ec1d25" stroke-miterlimit="10" stroke-width="3"/>
      <g>
        <circle cx="231.49" cy="73.15" r="6.83" fill="#ec1d25"/>
        <circle cx="249.09" cy="66.33" r="6.59" fill="#ec1d25"/>
        <circle cx="265.5" cy="62.86" r="5.15" fill="#ec1d25"/>
      </g>
    </g>
    <polygon points="228.08 50.99 230.43 49.94 231.7 49.5 227.21 46.33 228.08 50.99" fill="#ec1d25"/>
    <g>
      <path d="M343.54,73.54c.54,12.58-5.72,22.47-16.8,28.19-.82.24-1.8-.35-2.18-1.01-.4-.64.46-1.19,1.02-1.52,9.13-5.35,14.16-12.4,14.81-21.67,0-.63.15-1.03-.2-1.18-7.01,1.65-20.21,4.97-27.3,6.66-.38-.01-.33-.41-.56-1.11-.11-.69-.52-1.52-.14-1.78,2.29-.58,25.91-6.36,28.53-7,.7-.17,2.01-.17,2.74.32l.08.09ZM338.02,65.44c-.2.43-2.09.56-4.68,1.3-5.2,1.21-14.38,3.6-19.13,4.6-.11-.06-.21-.42-.36-1.02-.11-.71-.49-1.41-.22-1.73,1.66-.43,21.58-5.26,23.56-5.74.41.02.33.62.54,1.24.13.55.26,1.06.28,1.28v.08Z" fill="#fff" stroke="#fff" stroke-miterlimit="10"/>
      <path d="M334.75,115.21c.53.07,2.86-.41,3.09.69.03,2.8,3.32,33.14,2.8,35.36-.51.04-2.57.39-3.01.15-.65-6.9-1.86-21.58-2.55-29.29-.31-3.75-.58-6.42-.57-6.82.02-.04.06-.06.15-.08h.08Z" fill="#fff" stroke="#fff" stroke-miterlimit="10"/>
      <path d="M327.11,173.82c3.49,1.17,7.23,4.04,10.51,5.99.47.28,1.02.53,1.52.32.38-.15.7-.54.96-.88,2.54-3.43,5.14-7.69,7.32-11.96.37-.72.84-1.09,1.69-.7.73.33,1.48.88,1.54,1.37,0,.17.05.14-.07.54-1.06,2.2-2.34,4.26-3.62,6.38-1.32,2.14-2.75,4.27-4.18,6.24-.29.4-.58.92-.49,1.38.12.81,1.38,1.48,2.27,2.22,1.75,1.35,3.59,2.85,5.17,4.32.85.65.78,1.44.08,2.2-.71.83-1.36,1.43-2.2.58-2.07-1.94-4.34-3.92-6.74-5.7-.86-.69-1.87-.44-2.5.44-4.64,5.29-10.8,10.51-17.54,14.44-1.12.74-2.46-.18-2.93-1.21-.25-.61.44-1.05.94-1.36,6.65-3.9,12.93-9.09,17.3-14.13.6-.71.21-1.44-.49-1.9-2.96-2.04-6.15-3.99-9.22-5.71-.35-.21-.77-.45-.86-.83-.16-.62.75-1.85,1.42-2.03l.13-.03Z" fill="#fff" stroke="#fff" stroke-miterlimit="10"/>
      <path d="M307.87,249.88c15.12-1.96,27.13-7.84,34.76-18.33.77-.82,1.83.37,2.3,1,.41.6.17,1.19-.25,1.73-7.69,9.9-19.44,16.43-33.99,18.37-1.22.22-1.83.15-2.43-1.13-.36-.67-.7-1.31-.47-1.58l.07-.08ZM314.02,220.41c4.02,2.09,8.49,5.41,11.2,8.08.13.15.21.29.18.45-.04.27-.46.65-.9,1.14-.64.59-.88,1.31-1.49.8-2.56-2.61-6.75-5.67-10.52-7.97-.66-.44-.17-.77.32-1.39.47-.51.65-.94,1.1-1.11h.12Z" fill="#fff" stroke="#fff" stroke-miterlimit="10"/>
    </g>
    <g>
      <path d="M126.24,409.87h1.47c0-.42-.07-.84-.14-1.19-.34-2.8-2.16-4.13-5.24-4.14-4.27,0-6.09,2.02-6.94,4.12-.07.21-8.89,1.24-8.88-4.78,0-1.82.57-3.43,1.83-4.76,2.39-2.73,7.22-4.12,14.78-4.1,12.46.02,17.91,5.15,17.89,15.09l-.04,19.46c0,.77-2.66,1.54-5.25,1.53-2.94,0-5.25-1.13-6.57-3.51-.35-.7-.7-1.47-.84-2.31-2.25,3.71-6.59,5.87-11.7,5.86-7-.01-11.47-3.94-11.46-9.96.01-7.49,7.58-11.25,21.09-11.3ZM127.7,415.55l-1.89.07c-5.25.06-8.33,1.24-8.34,4.18,0,2.1,1.6,3.36,3.98,3.37,3.64,0,6.09-2.09,6.24-5.31v-2.31Z"/>
      <path d="M202.98,408.8l-1.12,15.97c-.34,4.81-2.9,6.32-6.39,6.07l-1.39-.1c-3.56-.25-5.96-1.96-5.61-6.91l.95-13.53c.22-3.14-1.06-4.84-3.78-5.03-1.95-.14-3.56.8-4.71,2.19l-1.11,15.77c-.34,4.88-2.9,6.32-6.39,6.07l-1.33-.09c-3.63-.26-6.03-1.97-5.68-6.92l.95-13.46c.23-3.21-1.06-4.91-3.71-5.1-1.95-.14-3.63.8-4.71,2.19l-1.11,15.76c-.34,4.88-2.97,6.31-6.39,6.07l-1.4-.1c-3.56-.25-5.96-1.96-5.61-6.91l1.92-27.27c.03-.49,2.48-1.37,5.2-1.18,3.07.22,6.33,1.71,7.25,6.54,2.63-3.46,5.89-5.97,11.26-5.59,5.93.42,9.01,3.44,10.26,7.59,2.64-3.67,5.99-6.45,11.71-6.05,8.86.62,11.44,6.83,10.93,14.02Z"/>
      <path d="M217.19,391.13c11.09-5.82,22.81-2.22,28.32,8.28l.35.66c1.04,2.17,1.11,3.73-1.09,4.88l-23.21,12.18c.27.33.53.66.83.87,2.84,2.91,7.04,3.24,11.23,1.04,4.33-2.27,6.38-5.69,6.36-8.95,0-.19,6.72-3.43,9.54,1.93,1.27,2.43.92,5.33-.92,8.26-1.91,2.97-5.34,5.89-10.48,8.59-12.41,6.51-23.9,3.54-30.07-8.21-5.86-11.17-2.09-23.63,9.15-29.53ZM221.7,400.28c-3.75,1.97-5.07,6.22-3.44,10.23l13.37-7.01c-2.42-4.07-6.04-5.26-9.93-3.22Z"/>
      <path d="M281.26,384.36l3.46,14.74c1.07,4.56-.87,6.69-4.18,7.47l-1.32.31c-3.37.79-6.09-.11-7.19-4.8l-2.95-12.56c-.68-2.91-2.64-4.4-5.28-3.78-2.18.51-3.72,1.99-4.29,3.72l3.46,14.74c1.08,4.63-.94,6.71-4.18,7.46l-1.32.31c-3.44.8-6.09-.11-7.19-4.8l-6.06-25.85c-.11-.46,1.91-1.98,4.55-2.6,3.3-.77,6.6.2,8.55,4.06,1.49-4.05,4.19-7.4,9.35-8.61,8.46-1.98,13.01,3.44,14.59,10.18Z"/>
    </g>
    <path d="M66.79,405.45l4.47-26.09c.77-4.49,3.46-6.5,7.52-5.8l12.25,2.1c11.02,1.89,15.71,7.38,14.24,15.94-.91,5.29-4.12,8.86-9.3,9.87l-1.36.15,7.18,12.82c.28.56-2.51,3.94-7.81,3.03-3.82-.65-5.44-2.64-7.35-6.65l-4.74-8.92-1.72-.3-1.27,7.38c-.63,3.69-2.83,5.41-6.4,4.79l-1.72-.3c-3.38-.58-4.78-3.54-4.01-8.04ZM87.55,394.17c3.69.63,5.83-.77,6.34-3.73.53-3.08-.98-4.98-4.8-5.64l-4.98-.85-1.6,9.35,5.05.87Z"/>
  </g>
</svg>